<?xml version="1.0"?>
<svg xmlns="http://www.w3.org/2000/svg" viewBox="0 0 1140 480"><defs><style>.cls-1{fill:#dcebf4;}.cls-2{fill:none;stroke:#a6cce9;stroke-linecap:round;stroke-linejoin:round;stroke-width:4px;}.cls-3{fill:#282f57;}.cls-4{fill:#006cbf;}.cls-5{fill:#fe8d8a;}.cls-6{fill:#fe5e5a;}.cls-7{fill:#ffb27d;}.cls-8{fill:#2c3a64;}.cls-9{fill:#ed985f;}.cls-10{fill:#233862;}.cls-11{fill:#2b478b;}.cls-12{fill:#388ccd;}.cls-13{fill:#0f2949;}.cls-14{fill:#163560;}.cls-15{fill:#404669;}.cls-16{fill:#fff;}.cls-17{fill:#435993;}.cls-18{fill:#41bee6;}.cls-19{fill:#364978;}.cls-20{fill:#fe4c5c;}.cls-21{fill:#fec5b2;}.cls-22{fill:#b8e6f5;}.cls-23{fill:#283c6e;}.cls-24{fill:#ed9487;}.cls-25{fill:#e64553;}.cls-26{fill:#2d8fbc;}.cls-27{fill:#76c4f5;}.cls-28{fill:#0e2a54;}.cls-29{fill:#ffb98a;}.cls-30{fill:#ffc9a3;}.cls-31{fill:#f3f3f3;}.cls-32{fill:#ce000c;}.cls-33{fill:#1a267c;}.cls-34{fill:#ff5c5c;}</style></defs><g id="Livello_2" data-name="Livello 2"><g id="Livello_1-2" data-name="Livello 1"><rect class="cls-1" width="1140" height="480" rx="15"/><line class="cls-2" x1="60.0006" y1="58.54165" x2="300.0006" y2="58.54165"/><line class="cls-2" x1="320.0004" y1="58.54165" x2="560.0004" y2="58.54165"/><line class="cls-2" x1="580.0002" y1="58.54165" x2="820.0002" y2="58.54165"/><line class="cls-2" x1="840" y1="58.54165" x2="1080" y2="58.54165"/><path class="cls-3" d="M61.78125,84.2151a1.45788,1.45788,0,0,1-.37988-1.08008V71.95534a1.32381,1.32381,0,0,1,1.46-1.46h7.08008q1.47948,0,1.47949,1.19921,0,1.22022-1.47949,1.22071h-5.5v3.2998H69.541q1.47948,0,1.47949,1.21973,0,1.1997-1.47949,1.20019H64.44141v3.54h5.5q1.47948,0,1.47949,1.21973,0,1.1997-1.47949,1.20019H62.86133A1.46184,1.46184,0,0,1,61.78125,84.2151Z"/><path class="cls-3" d="M79.3125,82.81471a1.11355,1.11355,0,0,1-.17969,1.64063,2.14514,2.14514,0,0,1-1.32031.23925l-.55957-.04q-3.501-.2798-3.5-3.65918v-3.96h-.80078a1.50464,1.50464,0,0,1-1-.29,1.03215,1.03215,0,0,1-.33985-.83008,1.05718,1.05718,0,0,1,.33985-.85059,1.51,1.51,0,0,1,1-.29h.80078V73.2151a1.34633,1.34633,0,0,1,.40918-1.04,1.57128,1.57128,0,0,1,1.11035-.37988,1.53251,1.53251,0,0,1,1.09961.37988,1.36533,1.36533,0,0,1,.40039,1.04v1.55957h1.40039q1.35938,0,1.35938,1.14063a1.03212,1.03212,0,0,1-.33985.83008,1.53752,1.53752,0,0,1-1.01953.29H76.77246V81.2151a1.31392,1.31392,0,0,0,.28027.91016,1.16854,1.16854,0,0,0,.81934.34961l.56055.04A1.41367,1.41367,0,0,1,79.3125,82.81471Z"/><path class="cls-3" d="M88.0752,75.58522a4.39867,4.39867,0,0,1,1.04,3.21v4.51953a1.37177,1.37177,0,0,1-.37988,1.03027,1.45644,1.45644,0,0,1-1.06055.37012,1.39477,1.39477,0,0,1-1.03027-.38965,1.369,1.369,0,0,1-.38965-1.01074v-.13965a2.35744,2.35744,0,0,1-1,1.16016,3.13373,3.13373,0,0,1-1.63965.41992,4.03458,4.03458,0,0,1-1.81054-.40039,3.15864,3.15864,0,0,1-1.2793-1.12012,2.86139,2.86139,0,0,1-.4707-1.59961,2.47568,2.47568,0,0,1,.5498-1.70019,3.29006,3.29006,0,0,1,1.77051-.89942,15.64221,15.64221,0,0,1,3.33984-.28027h.52051v-.36035a1.70319,1.70319,0,0,0-.37012-1.21973,1.67051,1.67051,0,0,0-1.23046-.37988,7.87494,7.87494,0,0,0-2.4795.59961,1.87864,1.87864,0,0,1-.78027.21973.864.864,0,0,1-.7002-.30957,1.219,1.219,0,0,1-.25976-.80957,1.13227,1.13227,0,0,1,.17969-.66016,1.669,1.669,0,0,1,.58007-.48047,6.49433,6.49433,0,0,1,1.71-.59961,9.34148,9.34148,0,0,1,1.99023-.21973A4.33319,4.33319,0,0,1,88.0752,75.58522ZM81.85449,71.635a1.35483,1.35483,0,0,1-.63965-1.08007,1.12492,1.12492,0,0,1,.37012-.84961,1.24745,1.24745,0,0,1,.88965-.35059,1.42743,1.42743,0,0,1,1.20019.68066l1.71973,2.29981a.90773.90773,0,0,1,.18067.51953.752.752,0,0,1-.76075.75977.85224.85224,0,0,1-.51953-.19922Zm3.84082,10.4502a2.18109,2.18109,0,0,0,.54-1.53027V80.2151h-.34082a6.84217,6.84217,0,0,0-2.26953.25977.942.942,0,0,0-.65039.94043,1.19519,1.19519,0,0,0,.37012.91015,1.30047,1.30047,0,0,0,.93066.34961A1.83437,1.83437,0,0,0,85.69531,82.08522Z"/><path class="cls-3" d="M110.71387,75.50514a4.73167,4.73167,0,0,1,.86035,3.16992v4.62012a1.31747,1.31747,0,0,1-.41992,1.05957,1.60167,1.60167,0,0,1-1.08008.36035,1.64818,1.64818,0,0,1-1.08008-.36035,1.29031,1.29031,0,0,1-.44043-1.05957V78.635a2.11782,2.11782,0,0,0-.3291-1.34961,1.25046,1.25046,0,0,0-1.01074-.39062,1.67943,1.67943,0,0,0-1.33985.58008,2.40543,2.40543,0,0,0-.5,1.62011v4.2002a1.31744,1.31744,0,0,1-.41992,1.05957,1.5999,1.5999,0,0,1-1.08008.36035,1.64815,1.64815,0,0,1-1.08007-.36035,1.28974,1.28974,0,0,1-.43946-1.05957V78.635a2.11717,2.11717,0,0,0-.33008-1.34961,1.25045,1.25045,0,0,0-1.01074-.39062,1.67941,1.67941,0,0,0-1.33984.58008,2.40538,2.40538,0,0,0-.5,1.62011v4.2002a1.30462,1.30462,0,0,1-.42969,1.05957,1.61072,1.61072,0,0,1-1.07031.36035,1.65,1.65,0,0,1-1.08008-.36035,1.28973,1.28973,0,0,1-.43945-1.05957V75.95534a1.22987,1.22987,0,0,1,.45019-1.02051,1.68739,1.68739,0,0,1,1.08985-.35938,1.46413,1.46413,0,0,1,1,.34961,1.22094,1.22094,0,0,1,.39941.96973V76.095a3.21563,3.21563,0,0,1,1.25-1.16015,3.74175,3.74175,0,0,1,1.75-.39942,3.466,3.466,0,0,1,1.79.42969,2.782,2.782,0,0,1,1.12988,1.38965,3.39677,3.39677,0,0,1,1.31055-1.33008,3.79725,3.79725,0,0,1,1.92969-.48926A3.11519,3.11519,0,0,1,110.71387,75.50514Z"/><path class="cls-3" d="M113.67383,72.56471a1.40931,1.40931,0,0,1-.46-1.10937,1.38383,1.38383,0,0,1,.46-1.10059,2.14959,2.14959,0,0,1,2.50976.00977,1.377,1.377,0,0,1,.47071,1.09082,1.41252,1.41252,0,0,1-.46,1.10937,2.14121,2.14121,0,0,1-2.52051,0Zm.16992,11.79a1.30163,1.30163,0,0,1-.42969-1.05957v-7.2998a1.29176,1.29176,0,0,1,.43946-1.06055,1.64929,1.64929,0,0,1,1.08007-.35938,1.61007,1.61007,0,0,1,1.07032.35938,1.30669,1.30669,0,0,1,.42968,1.06055v7.2998a1.30462,1.30462,0,0,1-.42968,1.05957,1.61075,1.61075,0,0,1-1.07032.36035A1.64051,1.64051,0,0,1,113.84375,84.35475Z"/><path class="cls-3" d="M127.11035,75.56471a4.77755,4.77755,0,0,1,.85938,3.11035v4.62012a1.34838,1.34838,0,0,1-.41016,1.04,1.57039,1.57039,0,0,1-1.10937.37988,1.535,1.535,0,0,1-1.10059-.37988,1.3662,1.3662,0,0,1-.39941-1.04V78.81471a2.32968,2.32968,0,0,0-.37012-1.46,1.38859,1.38859,0,0,0-1.15039-.46,1.98363,1.98363,0,0,0-1.50977.60059,2.2253,2.2253,0,0,0-.57031,1.5996v4.2002a1.3662,1.3662,0,0,1-.39941,1.04,1.53661,1.53661,0,0,1-1.10059.37988,1.56716,1.56716,0,0,1-1.10938-.37988,1.34841,1.34841,0,0,1-.41015-1.04V75.95534a1.26824,1.26824,0,0,1,.42969-1,1.61165,1.61165,0,0,1,1.11035-.37989,1.4088,1.4088,0,0,1,1.00976.36914,1.253,1.253,0,0,1,.38965.9502v.28027a3.43511,3.43511,0,0,1,1.35059-1.21972,4.078,4.078,0,0,1,1.87011-.41993A3.22154,3.22154,0,0,1,127.11035,75.56471Z"/><path class="cls-3" d="M130.0498,72.56471a1.40931,1.40931,0,0,1-.46-1.10937,1.38383,1.38383,0,0,1,.46-1.10059,2.14961,2.14961,0,0,1,2.50977.00977,1.377,1.377,0,0,1,.4707,1.09082,1.41249,1.41249,0,0,1-.46,1.10937,2.14121,2.14121,0,0,1-2.52051,0Zm.16993,11.79a1.30163,1.30163,0,0,1-.42969-1.05957v-7.2998a1.29176,1.29176,0,0,1,.43945-1.06055,1.64932,1.64932,0,0,1,1.08008-.35938,1.61,1.61,0,0,1,1.07031.35938,1.30667,1.30667,0,0,1,.42969,1.06055v7.2998a1.30459,1.30459,0,0,1-.42969,1.05957,1.61072,1.61072,0,0,1-1.07031.36035A1.64051,1.64051,0,0,1,130.21973,84.35475Z"/><path class="cls-3" d="M149.26562,75.50514a4.73162,4.73162,0,0,1,.86036,3.16992v4.62012a1.31744,1.31744,0,0,1-.41993,1.05957,1.60162,1.60162,0,0,1-1.08007.36035,1.64818,1.64818,0,0,1-1.08008-.36035,1.29031,1.29031,0,0,1-.44043-1.05957V78.635a2.11788,2.11788,0,0,0-.3291-1.34961,1.25048,1.25048,0,0,0-1.01075-.39062,1.67941,1.67941,0,0,0-1.33984.58008,2.40538,2.40538,0,0,0-.5,1.62011v4.2002a1.31747,1.31747,0,0,1-.41992,1.05957,1.5999,1.5999,0,0,1-1.08008.36035,1.64818,1.64818,0,0,1-1.08008-.36035,1.28973,1.28973,0,0,1-.43945-1.05957V78.635a2.11717,2.11717,0,0,0-.33008-1.34961,1.25046,1.25046,0,0,0-1.01074-.39062,1.67939,1.67939,0,0,0-1.33984.58008,2.40538,2.40538,0,0,0-.5,1.62011v4.2002a1.30462,1.30462,0,0,1-.42969,1.05957,1.61074,1.61074,0,0,1-1.07031.36035,1.65,1.65,0,0,1-1.08008-.36035,1.28974,1.28974,0,0,1-.43946-1.05957V75.95534a1.22988,1.22988,0,0,1,.4502-1.02051,1.68736,1.68736,0,0,1,1.08984-.35938,1.46409,1.46409,0,0,1,1,.34961,1.22091,1.22091,0,0,1,.39942.96973V76.095a3.21563,3.21563,0,0,1,1.25-1.16015,3.74175,3.74175,0,0,1,1.75-.39942,3.466,3.466,0,0,1,1.79.42969,2.782,2.782,0,0,1,1.12988,1.38965,3.3967,3.3967,0,0,1,1.31055-1.33008,3.79724,3.79724,0,0,1,1.92968-.48926A3.11516,3.11516,0,0,1,149.26562,75.50514Z"/><path class="cls-3" d="M159.53027,75.58522a4.39863,4.39863,0,0,1,1.04,3.21v4.51953a1.37177,1.37177,0,0,1-.37988,1.03027,1.45645,1.45645,0,0,1-1.06055.37012,1.39476,1.39476,0,0,1-1.03027-.38965,1.369,1.369,0,0,1-.38965-1.01074v-.13965a2.35744,2.35744,0,0,1-1,1.16016,3.13376,3.13376,0,0,1-1.63965.41992,4.03455,4.03455,0,0,1-1.81054-.40039,3.15864,3.15864,0,0,1-1.2793-1.12012,2.86139,2.86139,0,0,1-.4707-1.59961,2.47568,2.47568,0,0,1,.5498-1.70019,3.29006,3.29006,0,0,1,1.77051-.89942,15.64215,15.64215,0,0,1,3.33984-.28027h.52051v-.36035a1.70319,1.70319,0,0,0-.37012-1.21973,1.67052,1.67052,0,0,0-1.23047-.37988,7.875,7.875,0,0,0-2.47949.59961,1.87868,1.87868,0,0,1-.78027.21973.864.864,0,0,1-.7002-.30957,1.219,1.219,0,0,1-.25976-.80957,1.13234,1.13234,0,0,1,.17968-.66016,1.66914,1.66914,0,0,1,.58008-.48047,6.49438,6.49438,0,0,1,1.71-.59961,9.34164,9.34164,0,0,1,1.99024-.21973A4.33316,4.33316,0,0,1,159.53027,75.58522Zm-2.37988,6.5a2.18109,2.18109,0,0,0,.54-1.53027V80.2151h-.34082a6.84217,6.84217,0,0,0-2.26953.25977.942.942,0,0,0-.65039.94043,1.19518,1.19518,0,0,0,.37011.91015,1.30051,1.30051,0,0,0,.93067.34961A1.83437,1.83437,0,0,0,157.15039,82.08522Z"/><path class="cls-4" d="M71.55957,106.26784a1.34166,1.34166,0,0,1,.4209,1.0791q0,1.48095-1.74024,1.48047H63.2998q-1.74022,0-1.74023-1.48047a1.34166,1.34166,0,0,1,.4209-1.0791,1.99779,1.99779,0,0,1,1.31933-.36036h1.62012V98.68776l-1.59961.93945a1.362,1.362,0,0,1-.70019.2002,1.20075,1.20075,0,0,1-.96-.49024,1.68038,1.68038,0,0,1-.40039-1.08984A1.35861,1.35861,0,0,1,61.96,97.00709l3.2002-1.85937a3.38119,3.38119,0,0,1,1.66015-.5,1.76775,1.76775,0,0,1,1.29.47949,1.73919,1.73919,0,0,1,.48926,1.29981v9.48046h1.64062A1.9978,1.9978,0,0,1,71.55957,106.26784Z"/><path class="cls-4" d="M83.374,102.79713a3.49611,3.49611,0,0,1,.64942,2.15039,3.45125,3.45125,0,0,1-1.48926,2.96973,8.27472,8.27472,0,0,1-8.14063,0,3.45125,3.45125,0,0,1-1.48925-2.96973,3.52484,3.52484,0,0,1,.65918-2.19043,3.3293,3.3293,0,0,1,1.88086-1.18945,3.28531,3.28531,0,0,1-1.60059-1.23047,3.40316,3.40316,0,0,1-.55957-1.95019,3.30057,3.30057,0,0,1,1.39941-2.80957,7.46831,7.46831,0,0,1,7.57032,0A3.30905,3.30905,0,0,1,83.64355,98.387a3.47526,3.47526,0,0,1-.56933,2,3.00961,3.00961,0,0,1-1.57031,1.18066A3.47536,3.47536,0,0,1,83.374,102.79713Zm-2.73047,1.85059q0-1.56006-2.17968-1.56055-2.17969,0-2.17969,1.56055,0,1.56006,2.17969,1.55957Q80.64355,106.20729,80.64355,104.64772ZM77.124,97.677a1.35784,1.35784,0,0,0-.44043,1.13086,1.38694,1.38694,0,0,0,.44043,1.13964,2.671,2.671,0,0,0,2.67969,0,1.3899,1.3899,0,0,0,.44043-1.13964,1.3607,1.3607,0,0,0-.44043-1.13086,2.74222,2.74222,0,0,0-2.67969,0Z"/><path class="cls-4" d="M99.17383,99.83717a4.50384,4.50384,0,0,1,1.08984,3.31055v4.17969a1.57,1.57,0,0,1-.45019,1.19043,1.73773,1.73773,0,0,1-1.25.42968,1.66024,1.66024,0,0,1-1.14942-.40039,1.49216,1.49216,0,0,1-.49023-1.08007,2.21479,2.21479,0,0,1-.94043,1.12011,2.9912,2.9912,0,0,1-1.58008.40039,4.05681,4.05681,0,0,1-1.83984-.41015,3.20284,3.20284,0,0,1-1.29-1.13965,2.98349,2.98349,0,0,1-.46973-1.65039,2.4802,2.4802,0,0,1,.54981-1.69043,3.22765,3.22765,0,0,1,1.75-.90918,14.86836,14.86836,0,0,1,3.24023-.28028h.54v-.24023a1.36117,1.36117,0,0,0-.32031-1.00977,1.52347,1.52347,0,0,0-1.08008-.31054,7.95211,7.95211,0,0,0-2.39942.56054,2.46906,2.46906,0,0,1-.78027.16016.98594.98594,0,0,1-.7998-.36035,1.41776,1.41776,0,0,1-.30079-.93945,1.31207,1.31207,0,0,1,.18067-.72071,1.56615,1.56615,0,0,1,.58008-.5,7.019,7.019,0,0,1,1.75976-.58007,10.22918,10.22918,0,0,1,2.08008-.21973A4.59581,4.59581,0,0,1,99.17383,99.83717Zm-2.75,6.25977a1.88025,1.88025,0,0,0,.46-1.30957v-.24024h-.32031a5.09251,5.09251,0,0,0-1.82032.23047.791.791,0,0,0-.54.76953,1.04946,1.04946,0,0,0,.29.76075.99969.99969,0,0,0,.75.2998A1.516,1.516,0,0,0,96.42383,106.09694Z"/><path class="cls-4" d="M111.55566,99.79713a4.96771,4.96771,0,0,1,.85938,3.19043v4.32032a1.54331,1.54331,0,0,1-.47949,1.19921,2.13967,2.13967,0,0,1-2.60059,0,1.54664,1.54664,0,0,1-.47949-1.19921v-4.16016a2.09824,2.09824,0,0,0-.31055-1.28027,1.10285,1.10285,0,0,0-.92969-.40039,1.63825,1.63825,0,0,0-1.26953.51074,1.94144,1.94144,0,0,0-.4707,1.36914v3.96094a1.54331,1.54331,0,0,1-.47949,1.19921,2.13967,2.13967,0,0,1-2.60059,0,1.54668,1.54668,0,0,1-.47949-1.19921V100.387a1.47891,1.47891,0,0,1,.5-1.14942,1.86947,1.86947,0,0,1,1.2998-.45019,1.70046,1.70046,0,0,1,1.21.41992,1.43763,1.43763,0,0,1,.45019,1.10059,3.40744,3.40744,0,0,1,1.33984-1.16016,4.09762,4.09762,0,0,1,1.82032-.40039A3.1889,3.1889,0,0,1,111.55566,99.79713Z"/><path class="cls-4" d="M123.71777,99.79713a4.96771,4.96771,0,0,1,.85938,3.19043v4.32032a1.54331,1.54331,0,0,1-.47949,1.19921,2.13967,2.13967,0,0,1-2.60059,0,1.54664,1.54664,0,0,1-.47949-1.19921v-4.16016a2.09824,2.09824,0,0,0-.31055-1.28027,1.10285,1.10285,0,0,0-.92969-.40039,1.63825,1.63825,0,0,0-1.26953.51074,1.94144,1.94144,0,0,0-.4707,1.36914v3.96094a1.54331,1.54331,0,0,1-.47949,1.19921,2.13967,2.13967,0,0,1-2.60059,0,1.54668,1.54668,0,0,1-.47949-1.19921V100.387a1.47891,1.47891,0,0,1,.5-1.14942,1.86947,1.86947,0,0,1,1.2998-.45019,1.70042,1.70042,0,0,1,1.21.41992,1.43761,1.43761,0,0,1,.4502,1.10059,3.40744,3.40744,0,0,1,1.33984-1.16016,4.09762,4.09762,0,0,1,1.82032-.40039A3.1889,3.1889,0,0,1,123.71777,99.79713Z"/><path class="cls-4" d="M126.93262,96.91725a1.5855,1.5855,0,0,1-.5293-1.25,1.55962,1.55962,0,0,1,.5293-1.24023,2.43825,2.43825,0,0,1,2.85058,0,1.54951,1.54951,0,0,1,.54,1.24023,1.58626,1.58626,0,0,1-.53027,1.25,2.41207,2.41207,0,0,1-2.86035,0Zm.16015,11.62012a1.483,1.483,0,0,1-.50976-1.22949V100.427a1.48427,1.48427,0,0,1,.50976-1.2295,2.17137,2.17137,0,0,1,2.54,0,1.48424,1.48424,0,0,1,.50977,1.2295v6.88086a1.483,1.483,0,0,1-.50977,1.22949,2.17137,2.17137,0,0,1-2.54,0Z"/><path class="cls-3" d="M321.78027,84.2151a1.45792,1.45792,0,0,1-.37988-1.08008V71.95534a1.32381,1.32381,0,0,1,1.46-1.46h7.08008q1.4795,0,1.47949,1.19921,0,1.22022-1.47949,1.22071h-5.5v3.2998H329.54q1.4795,0,1.47949,1.21973,0,1.1997-1.47949,1.20019h-5.09961v3.54h5.5q1.4795,0,1.47949,1.21973,0,1.1997-1.47949,1.20019h-7.08008A1.46184,1.46184,0,0,1,321.78027,84.2151Z"/><path class="cls-3" d="M339.31152,82.81471a1.11354,1.11354,0,0,1-.17968,1.64063,2.14517,2.14517,0,0,1-1.32032.23925l-.55957-.04q-3.501-.2798-3.5-3.65918v-3.96h-.80078a1.50464,1.50464,0,0,1-1-.29,1.03214,1.03214,0,0,1-.33984-.83008,1.05717,1.05717,0,0,1,.33984-.85059,1.51,1.51,0,0,1,1-.29h.80078V73.2151a1.34636,1.34636,0,0,1,.40918-1.04,1.5713,1.5713,0,0,1,1.11035-.37988,1.53251,1.53251,0,0,1,1.09961.37988,1.36529,1.36529,0,0,1,.40039,1.04v1.55957h1.4004q1.35936,0,1.35937,1.14063a1.03214,1.03214,0,0,1-.33984.83008,1.53756,1.53756,0,0,1-1.01953.29h-1.4004V81.2151a1.31393,1.31393,0,0,0,.28028.91016,1.1685,1.1685,0,0,0,.81933.34961l.56055.04A1.41367,1.41367,0,0,1,339.31152,82.81471Z"/><path class="cls-3" d="M348.07422,75.58522a4.39868,4.39868,0,0,1,1.04,3.21v4.51953a1.37181,1.37181,0,0,1-.37988,1.03027,1.45647,1.45647,0,0,1-1.06055.37012,1.3948,1.3948,0,0,1-1.03028-.38965,1.369,1.369,0,0,1-.38964-1.01074v-.13965a2.35754,2.35754,0,0,1-1,1.16016,3.13378,3.13378,0,0,1-1.63965.41992,4.03462,4.03462,0,0,1-1.81055-.40039,3.15864,3.15864,0,0,1-1.2793-1.12012,2.86147,2.86147,0,0,1-.4707-1.59961,2.47564,2.47564,0,0,1,.54981-1.70019,3.29,3.29,0,0,1,1.7705-.89942,15.64225,15.64225,0,0,1,3.33985-.28027h.52051v-.36035a1.70324,1.70324,0,0,0-.37012-1.21973,1.67054,1.67054,0,0,0-1.23047-.37988,7.875,7.875,0,0,0-2.47949.59961,1.87872,1.87872,0,0,1-.78028.21973.864.864,0,0,1-.70019-.30957,1.219,1.219,0,0,1-.25977-.80957,1.13227,1.13227,0,0,1,.17969-.66016,1.66914,1.66914,0,0,1,.58008-.48047,6.49425,6.49425,0,0,1,1.71-.59961,9.34148,9.34148,0,0,1,1.99023-.21973A4.33317,4.33317,0,0,1,348.07422,75.58522Zm-6.2207-3.9502a1.35483,1.35483,0,0,1-.63965-1.08007,1.12491,1.12491,0,0,1,.37011-.84961,1.24746,1.24746,0,0,1,.88965-.35059,1.42745,1.42745,0,0,1,1.2002.68066l1.71972,2.29981a.90773.90773,0,0,1,.18067.51953.752.752,0,0,1-.76074.75977.85222.85222,0,0,1-.51953-.19922Zm3.84082,10.4502a2.18114,2.18114,0,0,0,.54-1.53027V80.2151h-.34083a6.84221,6.84221,0,0,0-2.26953.25977.942.942,0,0,0-.65039.94043,1.19519,1.19519,0,0,0,.37012.91015,1.30047,1.30047,0,0,0,.93066.34961A1.83441,1.83441,0,0,0,345.69434,82.08522Z"/><path class="cls-3" d="M370.71289,75.50514a4.73167,4.73167,0,0,1,.86035,3.16992v4.62012a1.31747,1.31747,0,0,1-.41992,1.05957,1.60163,1.60163,0,0,1-1.08008.36035,1.64818,1.64818,0,0,1-1.08008-.36035,1.29034,1.29034,0,0,1-.44043-1.05957V78.635a2.11782,2.11782,0,0,0-.3291-1.34961,1.25045,1.25045,0,0,0-1.01074-.39062,1.67939,1.67939,0,0,0-1.33984.58008,2.40538,2.40538,0,0,0-.5,1.62011v4.2002a1.31744,1.31744,0,0,1-.41993,1.05957,1.59987,1.59987,0,0,1-1.08007.36035,1.64818,1.64818,0,0,1-1.08008-.36035,1.28973,1.28973,0,0,1-.43945-1.05957V78.635a2.11724,2.11724,0,0,0-.33008-1.34961,1.25047,1.25047,0,0,0-1.01074-.39062,1.67941,1.67941,0,0,0-1.33985.58008,2.40538,2.40538,0,0,0-.5,1.62011v4.2002a1.30459,1.30459,0,0,1-.42969,1.05957,1.61072,1.61072,0,0,1-1.07031.36035,1.65,1.65,0,0,1-1.08008-.36035,1.28973,1.28973,0,0,1-.43945-1.05957V75.95534a1.22985,1.22985,0,0,1,.4502-1.02051,1.68734,1.68734,0,0,1,1.08984-.35938,1.46411,1.46411,0,0,1,1,.34961,1.22094,1.22094,0,0,1,.39941.96973V76.095a3.21577,3.21577,0,0,1,1.25-1.16015,3.74178,3.74178,0,0,1,1.75-.39942,3.466,3.466,0,0,1,1.79.42969,2.782,2.782,0,0,1,1.12989,1.38965,3.39675,3.39675,0,0,1,1.31054-1.33008,3.79728,3.79728,0,0,1,1.92969-.48926A3.11516,3.11516,0,0,1,370.71289,75.50514Z"/><path class="cls-3" d="M380.97754,75.58522a4.39868,4.39868,0,0,1,1.04,3.21v4.51953a1.37181,1.37181,0,0,1-.37988,1.03027,1.45647,1.45647,0,0,1-1.06055.37012,1.39476,1.39476,0,0,1-1.03027-.38965,1.369,1.369,0,0,1-.38965-1.01074v-.13965a2.35754,2.35754,0,0,1-1,1.16016,3.13378,3.13378,0,0,1-1.63965.41992,4.03462,4.03462,0,0,1-1.81055-.40039,3.15864,3.15864,0,0,1-1.2793-1.12012,2.86147,2.86147,0,0,1-.4707-1.59961,2.47564,2.47564,0,0,1,.54981-1.70019,3.29,3.29,0,0,1,1.7705-.89942,15.64225,15.64225,0,0,1,3.33985-.28027h.52051v-.36035a1.70324,1.70324,0,0,0-.37012-1.21973,1.67054,1.67054,0,0,0-1.23047-.37988,7.875,7.875,0,0,0-2.47949.59961,1.87872,1.87872,0,0,1-.78028.21973.864.864,0,0,1-.70019-.30957,1.219,1.219,0,0,1-.25977-.80957,1.13227,1.13227,0,0,1,.17969-.66016,1.66914,1.66914,0,0,1,.58008-.48047,6.49438,6.49438,0,0,1,1.71-.59961,9.34148,9.34148,0,0,1,1.99023-.21973A4.33317,4.33317,0,0,1,380.97754,75.58522Zm-2.37988,6.5a2.18114,2.18114,0,0,0,.54-1.53027V80.2151h-.34082a6.84224,6.84224,0,0,0-2.26954.25977.942.942,0,0,0-.65039.94043,1.19519,1.19519,0,0,0,.37012.91015,1.30047,1.30047,0,0,0,.93066.34961A1.83441,1.83441,0,0,0,378.59766,82.08522Z"/><path class="cls-3" d="M385.45508,84.555a4.79461,4.79461,0,0,1-1.58008-.63965,1.22782,1.22782,0,0,1-.46-.48047,1.42535,1.42535,0,0,1-.16016-.67969,1.15751,1.15751,0,0,1,.26074-.77051.805.805,0,0,1,.63965-.30957,1.5994,1.5994,0,0,1,.52051.08985c.17285.06054.35254.12988.53906.21a7.10735,7.10735,0,0,0,1.10059.41015,5.10493,5.10493,0,0,0,1.33984.15039,2.22579,2.22579,0,0,0,1.08985-.2207.66916.66916,0,0,0,.39062-.59961.60969.60969,0,0,0-.1709-.45019,1.55518,1.55518,0,0,0-.62988-.30957q-.46-.14062-1.46-.34082a5.50485,5.50485,0,0,1-2.55957-1.01954,2.38585,2.38585,0,0,1-.78027-1.90039,2.60125,2.60125,0,0,1,.5498-1.61914,3.65844,3.65844,0,0,1,1.51074-1.13086,5.45969,5.45969,0,0,1,2.15918-.40918,6.4696,6.4696,0,0,1,1.68067.21973,5.36236,5.36236,0,0,1,1.46.62012,1.33482,1.33482,0,0,1,.35937,1.91992.79509.79509,0,0,1-.63965.31934,2.3338,2.3338,0,0,1-1.09961-.35938,5.91785,5.91785,0,0,0-.91015-.39062,3.24668,3.24668,0,0,0-.96973-.12989,1.80718,1.80718,0,0,0-.98047.23047.71234.71234,0,0,0-.36035.62988.69258.69258,0,0,0,.41992.63965,6.53216,6.53216,0,0,0,1.62012.44043,8.79874,8.79874,0,0,1,2.10059.62989,2.54,2.54,0,0,1,1.09961.92968,2.70315,2.70315,0,0,1,.33984,1.41993,2.64382,2.64382,0,0,1-1.16992,2.26074,5.26168,5.26168,0,0,1-3.12988.83984A9.90957,9.90957,0,0,1,385.45508,84.555Z"/><path class="cls-3" d="M394.84668,84.555a4.7947,4.7947,0,0,1-1.58008-.63965,1.22789,1.22789,0,0,1-.46-.48047,1.42547,1.42547,0,0,1-.16016-.67969,1.15746,1.15746,0,0,1,.26075-.77051.805.805,0,0,1,.63965-.30957,1.59934,1.59934,0,0,1,.5205.08985c.17285.06054.35254.12988.53907.21a7.10687,7.10687,0,0,0,1.10058.41015,5.105,5.105,0,0,0,1.33985.15039,2.22577,2.22577,0,0,0,1.08984-.2207.66916.66916,0,0,0,.39062-.59961.60968.60968,0,0,0-.17089-.45019,1.55531,1.55531,0,0,0-.62989-.30957q-.46-.14062-1.46-.34082A5.50485,5.50485,0,0,1,393.707,79.595a2.38585,2.38585,0,0,1-.78027-1.90039,2.60125,2.60125,0,0,1,.5498-1.61914,3.65844,3.65844,0,0,1,1.51074-1.13086,5.45969,5.45969,0,0,1,2.15918-.40918,6.46955,6.46955,0,0,1,1.68067.21973,5.36236,5.36236,0,0,1,1.46.62012,1.3348,1.3348,0,0,1,.35937,1.91992.79507.79507,0,0,1-.63964.31934,2.33377,2.33377,0,0,1-1.09961-.35938,5.91834,5.91834,0,0,0-.91016-.39062,3.24668,3.24668,0,0,0-.96973-.12989,1.80712,1.80712,0,0,0-.98046.23047.71233.71233,0,0,0-.36036.62988.69257.69257,0,0,0,.41993.63965,6.53191,6.53191,0,0,0,1.62011.44043,8.79874,8.79874,0,0,1,2.10059.62989,2.54,2.54,0,0,1,1.09961.92968,2.70315,2.70315,0,0,1,.33984,1.41993,2.64382,2.64382,0,0,1-1.16992,2.26074,5.26168,5.26168,0,0,1-3.12988.83984A9.90963,9.90963,0,0,1,394.84668,84.555Z"/><path class="cls-3" d="M402.85645,72.56471a1.40928,1.40928,0,0,1-.46-1.10937,1.3838,1.3838,0,0,1,.46-1.10059,2.14959,2.14959,0,0,1,2.50976.00977,1.377,1.377,0,0,1,.4707,1.09082,1.41249,1.41249,0,0,1-.46,1.10937,2.14119,2.14119,0,0,1-2.5205,0Zm.16992,11.79a1.30163,1.30163,0,0,1-.42969-1.05957v-7.2998a1.29176,1.29176,0,0,1,.43945-1.06055,1.64932,1.64932,0,0,1,1.08008-.35938,1.61,1.61,0,0,1,1.07031.35938,1.30667,1.30667,0,0,1,.42969,1.06055v7.2998a1.30459,1.30459,0,0,1-.42969,1.05957,1.61072,1.61072,0,0,1-1.07031.36035A1.64051,1.64051,0,0,1,403.02637,84.35475Z"/><path class="cls-3" d="M422.07227,75.50514a4.73167,4.73167,0,0,1,.86035,3.16992v4.62012a1.31747,1.31747,0,0,1-.41992,1.05957,1.60167,1.60167,0,0,1-1.08008.36035,1.64818,1.64818,0,0,1-1.08008-.36035,1.29031,1.29031,0,0,1-.44043-1.05957V78.635a2.11788,2.11788,0,0,0-.3291-1.34961,1.25047,1.25047,0,0,0-1.01074-.39062,1.67943,1.67943,0,0,0-1.33985.58008,2.40538,2.40538,0,0,0-.5,1.62011v4.2002a1.31747,1.31747,0,0,1-.41992,1.05957,1.5999,1.5999,0,0,1-1.08008.36035,1.64818,1.64818,0,0,1-1.08008-.36035,1.28976,1.28976,0,0,1-.43945-1.05957V78.635a2.11717,2.11717,0,0,0-.33008-1.34961,1.25045,1.25045,0,0,0-1.01074-.39062,1.67939,1.67939,0,0,0-1.33984.58008,2.40538,2.40538,0,0,0-.5,1.62011v4.2002a1.30462,1.30462,0,0,1-.42969,1.05957,1.61074,1.61074,0,0,1-1.07031.36035,1.65,1.65,0,0,1-1.08008-.36035,1.28973,1.28973,0,0,1-.43945-1.05957V75.95534a1.22987,1.22987,0,0,1,.45019-1.02051,1.68738,1.68738,0,0,1,1.08984-.35938,1.46409,1.46409,0,0,1,1,.34961,1.22091,1.22091,0,0,1,.39942.96973V76.095a3.21563,3.21563,0,0,1,1.25-1.16015,3.74175,3.74175,0,0,1,1.75-.39942,3.466,3.466,0,0,1,1.79.42969,2.782,2.782,0,0,1,1.12988,1.38965,3.3967,3.3967,0,0,1,1.31055-1.33008,3.79724,3.79724,0,0,1,1.92968-.48926A3.1152,3.1152,0,0,1,422.07227,75.50514Z"/><path class="cls-3" d="M432.33691,75.58522a4.39863,4.39863,0,0,1,1.04,3.21v4.51953a1.37177,1.37177,0,0,1-.37988,1.03027,1.45645,1.45645,0,0,1-1.06055.37012,1.39477,1.39477,0,0,1-1.03027-.38965,1.369,1.369,0,0,1-.38965-1.01074v-.13965a2.35744,2.35744,0,0,1-1,1.16016,3.13376,3.13376,0,0,1-1.63965.41992,4.03458,4.03458,0,0,1-1.81054-.40039,3.15864,3.15864,0,0,1-1.2793-1.12012,2.86139,2.86139,0,0,1-.4707-1.59961,2.47568,2.47568,0,0,1,.5498-1.70019,3.29006,3.29006,0,0,1,1.77051-.89942,15.64221,15.64221,0,0,1,3.33984-.28027h.52051v-.36035a1.70319,1.70319,0,0,0-.37012-1.21973,1.67052,1.67052,0,0,0-1.23047-.37988,7.875,7.875,0,0,0-2.47949.59961,1.87864,1.87864,0,0,1-.78027.21973.864.864,0,0,1-.7002-.30957,1.219,1.219,0,0,1-.25976-.80957,1.13227,1.13227,0,0,1,.17969-.66016,1.669,1.669,0,0,1,.58007-.48047,6.49438,6.49438,0,0,1,1.71-.59961,9.34164,9.34164,0,0,1,1.99024-.21973A4.33316,4.33316,0,0,1,432.33691,75.58522Zm-2.37988,6.5a2.18109,2.18109,0,0,0,.54-1.53027V80.2151h-.34082a6.84217,6.84217,0,0,0-2.26953.25977.942.942,0,0,0-.65039.94043,1.19519,1.19519,0,0,0,.37012.91015,1.30047,1.30047,0,0,0,.93066.34961A1.83437,1.83437,0,0,0,429.957,82.08522Z"/><path class="cls-4" d="M331.15137,95.15748a1.56279,1.56279,0,0,1,.38965,1.08985,2.55863,2.55863,0,0,1-.37989,1.32031l-6.06054,10.5a1.86387,1.86387,0,0,1-.68946.71,1.71517,1.71517,0,0,1-.85058.22949,1.82977,1.82977,0,0,1-1.23926-.46972,1.46693,1.46693,0,0,1-.54-1.15039,1.89376,1.89376,0,0,1,.2793-.96l5.14062-8.7793h-5a1.995,1.995,0,0,1-1.33008-.36035,1.361,1.361,0,0,1-.41015-1.08008,1.4023,1.4023,0,0,1,.41992-1.11035,1.96674,1.96674,0,0,1,1.32031-.36914H330.041A1.42293,1.42293,0,0,1,331.15137,95.15748Z"/><path class="cls-4" d="M333.86719,107.14772a8.92864,8.92864,0,0,1-1.37989-5.37988,8.88971,8.88971,0,0,1,1.37989-5.36036,5.21994,5.21994,0,0,1,7.99023,0,8.84043,8.84043,0,0,1,1.38965,5.36036,8.92865,8.92865,0,0,1-1.37988,5.37988,5.23222,5.23222,0,0,1-8,0Zm5.37988-1.96a9.94923,9.94923,0,0,0,.41992-3.41992,9.8729,9.8729,0,0,0-.41992-3.40039,1.4373,1.4373,0,0,0-2.75977-.00977,9.858,9.858,0,0,0-.41992,3.41016,9.94923,9.94923,0,0,0,.41992,3.41992,1.43541,1.43541,0,0,0,2.75977,0Z"/><path class="cls-4" d="M358.57715,99.83717a4.50384,4.50384,0,0,1,1.08984,3.31055v4.17969a1.57,1.57,0,0,1-.45019,1.19043,1.73773,1.73773,0,0,1-1.25.42968,1.66024,1.66024,0,0,1-1.14942-.40039,1.49216,1.49216,0,0,1-.49023-1.08007,2.21479,2.21479,0,0,1-.94043,1.12011,2.9912,2.9912,0,0,1-1.58008.40039,4.05681,4.05681,0,0,1-1.83984-.41015,3.20284,3.20284,0,0,1-1.29-1.13965,2.98349,2.98349,0,0,1-.46973-1.65039,2.4802,2.4802,0,0,1,.54981-1.69043,3.22765,3.22765,0,0,1,1.75-.90918,14.86836,14.86836,0,0,1,3.24023-.28028h.54v-.24023a1.36117,1.36117,0,0,0-.32031-1.00977,1.52347,1.52347,0,0,0-1.08008-.31054,7.95211,7.95211,0,0,0-2.39942.56054,2.46906,2.46906,0,0,1-.78027.16016.986.986,0,0,1-.7998-.36035,1.41776,1.41776,0,0,1-.30078-.93945,1.31207,1.31207,0,0,1,.18066-.72071,1.56615,1.56615,0,0,1,.58008-.5,7.019,7.019,0,0,1,1.75976-.58007,10.22918,10.22918,0,0,1,2.08008-.21973A4.59581,4.59581,0,0,1,358.57715,99.83717Zm-2.75,6.25977a1.88025,1.88025,0,0,0,.46-1.30957v-.24024h-.32031a5.09251,5.09251,0,0,0-1.82032.23047.791.791,0,0,0-.54.76953,1.04945,1.04945,0,0,0,.29.76075.99969.99969,0,0,0,.75.2998A1.516,1.516,0,0,0,355.82715,106.09694Z"/><path class="cls-4" d="M370.959,99.79713a4.96771,4.96771,0,0,1,.85938,3.19043v4.32032a1.54331,1.54331,0,0,1-.47949,1.19921,2.13967,2.13967,0,0,1-2.60059,0,1.54668,1.54668,0,0,1-.47949-1.19921v-4.16016a2.09824,2.09824,0,0,0-.31055-1.28027,1.10285,1.10285,0,0,0-.92969-.40039,1.63825,1.63825,0,0,0-1.26953.51074,1.94144,1.94144,0,0,0-.4707,1.36914v3.96094a1.54331,1.54331,0,0,1-.47949,1.19921,2.13967,2.13967,0,0,1-2.60059,0,1.54668,1.54668,0,0,1-.47949-1.19921V100.387a1.47891,1.47891,0,0,1,.5-1.14942,1.86947,1.86947,0,0,1,1.2998-.45019,1.70046,1.70046,0,0,1,1.21.41992,1.43763,1.43763,0,0,1,.45019,1.10059,3.40744,3.40744,0,0,1,1.33984-1.16016,4.09765,4.09765,0,0,1,1.82032-.40039A3.1889,3.1889,0,0,1,370.959,99.79713Z"/><path class="cls-4" d="M383.12012,99.79713a4.96777,4.96777,0,0,1,.85937,3.19043v4.32032a1.54331,1.54331,0,0,1-.47949,1.19921,2.13967,2.13967,0,0,1-2.60059,0,1.54668,1.54668,0,0,1-.47949-1.19921v-4.16016a2.09825,2.09825,0,0,0-.31054-1.28027,1.10288,1.10288,0,0,0-.92969-.40039,1.63824,1.63824,0,0,0-1.26953.51074,1.9414,1.9414,0,0,0-.47071,1.36914v3.96094a1.54331,1.54331,0,0,1-.47949,1.19921,2.13965,2.13965,0,0,1-2.60058,0,1.54665,1.54665,0,0,1-.4795-1.19921V100.387a1.47894,1.47894,0,0,1,.5-1.14942,1.86948,1.86948,0,0,1,1.29981-.45019,1.70045,1.70045,0,0,1,1.21.41992,1.43763,1.43763,0,0,1,.45019,1.10059,3.4074,3.4074,0,0,1,1.33985-1.16016A4.09758,4.09758,0,0,1,380.5,98.74733,3.18892,3.18892,0,0,1,383.12012,99.79713Z"/><path class="cls-4" d="M386.33594,96.91725a1.5855,1.5855,0,0,1-.5293-1.25,1.55962,1.55962,0,0,1,.5293-1.24023,2.43825,2.43825,0,0,1,2.85058,0,1.54951,1.54951,0,0,1,.54,1.24023,1.58626,1.58626,0,0,1-.53027,1.25,2.41207,2.41207,0,0,1-2.86035,0Zm.16015,11.62012a1.483,1.483,0,0,1-.50976-1.22949V100.427a1.48427,1.48427,0,0,1,.50976-1.2295,2.17137,2.17137,0,0,1,2.54,0,1.48424,1.48424,0,0,1,.50977,1.2295v6.88086a1.483,1.483,0,0,1-.50977,1.22949,2.17137,2.17137,0,0,1-2.54,0Z"/><path class="cls-3" d="M581.82031,84.29518a1.54048,1.54048,0,0,1-.41992-1.14062V71.95534a1.32381,1.32381,0,0,1,1.46-1.46h5.01953A5.14491,5.14491,0,0,1,591.46,71.65456a4.74048,4.74048,0,0,1,0,6.48046,5.14061,5.14061,0,0,1-3.58008,1.16016h-3.36035v3.85938a1.61343,1.61343,0,0,1-2.69922,1.14062Zm5.66016-7.36035q2.33936,0,2.33984-2.01953,0-2.04053-2.33984-2.04h-2.96094v4.05957Z"/><path class="cls-3" d="M602.35254,81.99538a1.29419,1.29419,0,0,1,.25.81933,1.08673,1.08673,0,0,1-.2002.62988,1.61745,1.61745,0,0,1-.56054.49024,7.09,7.09,0,0,1-1.58008.58984,6.73945,6.73945,0,0,1-1.65918.23047,5.95809,5.95809,0,0,1-2.79-.62012,4.3271,4.3271,0,0,1-1.83008-1.7705,5.48137,5.48137,0,0,1-.64062-2.71,5.55589,5.55589,0,0,1,.62011-2.65918,4.54471,4.54471,0,0,1,1.71973-1.81055,4.82891,4.82891,0,0,1,2.5-.64942,4.57429,4.57429,0,0,1,2.35059.58985,4.037,4.037,0,0,1,1.57031,1.67969,5.51258,5.51258,0,0,1,.55957,2.5498.95981.95981,0,0,1-.21.66992.75861.75861,0,0,1-.58985.23047h-5.60058a2.6677,2.6677,0,0,0,.7207,1.71,2.37406,2.37406,0,0,0,1.66016.53028,3.55205,3.55205,0,0,0,1.03906-.14063,9.85947,9.85947,0,0,0,1.02051-.37988c.18652-.08008.36621-.14942.54-.21a1.43677,1.43677,0,0,1,.46-.08985A.787.787,0,0,1,602.35254,81.99538Zm-5.4707-4.83008a2.6124,2.6124,0,0,0-.62012,1.58984h3.86035a2.61178,2.61178,0,0,0-.53027-1.60058,1.67127,1.67127,0,0,0-1.33008-.54A1.80872,1.80872,0,0,0,596.88184,77.1653Z"/><path class="cls-3" d="M605.75,84.555a4.7947,4.7947,0,0,1-1.58008-.63965,1.22789,1.22789,0,0,1-.46-.48047,1.42547,1.42547,0,0,1-.16016-.67969,1.15746,1.15746,0,0,1,.26075-.77051.805.805,0,0,1,.63965-.30957,1.59929,1.59929,0,0,1,.5205.08985c.17285.06054.35254.12988.53907.21a7.10687,7.10687,0,0,0,1.10058.41015,5.105,5.105,0,0,0,1.33985.15039,2.22577,2.22577,0,0,0,1.08984-.2207.66916.66916,0,0,0,.39062-.59961.60968.60968,0,0,0-.17089-.45019,1.55531,1.55531,0,0,0-.62989-.30957q-.46-.14062-1.46-.34082a5.50485,5.50485,0,0,1-2.55957-1.01954,2.38585,2.38585,0,0,1-.78027-1.90039,2.60125,2.60125,0,0,1,.5498-1.61914,3.65844,3.65844,0,0,1,1.51074-1.13086,5.45969,5.45969,0,0,1,2.15918-.40918,6.46955,6.46955,0,0,1,1.68067.21973,5.36236,5.36236,0,0,1,1.46.62012,1.3348,1.3348,0,0,1,.35937,1.91992.79507.79507,0,0,1-.63964.31934,2.33377,2.33377,0,0,1-1.09961-.35938,5.91834,5.91834,0,0,0-.91016-.39062,3.24668,3.24668,0,0,0-.96973-.12989,1.80712,1.80712,0,0,0-.98046.23047.71233.71233,0,0,0-.36036.62988.69257.69257,0,0,0,.41993.63965,6.53191,6.53191,0,0,0,1.62011.44043,8.79874,8.79874,0,0,1,2.10059.62989,2.54,2.54,0,0,1,1.09961.92968,2.70315,2.70315,0,0,1,.33984,1.41993A2.64382,2.64382,0,0,1,611,83.9153a5.26168,5.26168,0,0,1-3.12988.83984A9.90963,9.90963,0,0,1,605.75,84.555Z"/><path class="cls-3" d="M615.43164,84.12526A4.41486,4.41486,0,0,1,613.6123,82.345a6.05217,6.05217,0,0,1,0-5.41992,4.35712,4.35712,0,0,1,1.81934-1.7705,6.37344,6.37344,0,0,1,5.48047,0,4.37072,4.37072,0,0,1,1.82031,1.7705,6.06037,6.06037,0,0,1,0,5.41992,4.42877,4.42877,0,0,1-1.82031,1.78028,6.27551,6.27551,0,0,1-5.48047,0Zm4.94043-4.49024a3.314,3.314,0,0,0-.57031-2.12011,1.98027,1.98027,0,0,0-1.62988-.7002q-2.2002,0-2.2002,2.82031,0,2.81984,2.2002,2.82032Q620.37207,82.45534,620.37207,79.635Z"/><path class="cls-3" d="M644.55176,75.50514a4.73167,4.73167,0,0,1,.86035,3.16992v4.62012a1.31747,1.31747,0,0,1-.41992,1.05957,1.60167,1.60167,0,0,1-1.08008.36035,1.64818,1.64818,0,0,1-1.08008-.36035,1.29031,1.29031,0,0,1-.44043-1.05957V78.635a2.11782,2.11782,0,0,0-.3291-1.34961,1.25046,1.25046,0,0,0-1.01074-.39062,1.67943,1.67943,0,0,0-1.33985.58008,2.40543,2.40543,0,0,0-.5,1.62011v4.2002a1.31744,1.31744,0,0,1-.41992,1.05957,1.5999,1.5999,0,0,1-1.08008.36035,1.64815,1.64815,0,0,1-1.08007-.36035,1.28974,1.28974,0,0,1-.43946-1.05957V78.635a2.11717,2.11717,0,0,0-.33008-1.34961,1.25045,1.25045,0,0,0-1.01074-.39062,1.67941,1.67941,0,0,0-1.33984.58008,2.40538,2.40538,0,0,0-.5,1.62011v4.2002a1.30462,1.30462,0,0,1-.42969,1.05957,1.61072,1.61072,0,0,1-1.07031.36035,1.65,1.65,0,0,1-1.08008-.36035,1.28973,1.28973,0,0,1-.43945-1.05957V75.95534a1.22987,1.22987,0,0,1,.45019-1.02051,1.68739,1.68739,0,0,1,1.08985-.35938,1.46413,1.46413,0,0,1,1,.34961,1.22094,1.22094,0,0,1,.39941.96973V76.095a3.2157,3.2157,0,0,1,1.25-1.16015,3.74175,3.74175,0,0,1,1.75-.39942,3.466,3.466,0,0,1,1.79.42969,2.782,2.782,0,0,1,1.12988,1.38965,3.39677,3.39677,0,0,1,1.31055-1.33008,3.79728,3.79728,0,0,1,1.92969-.48926A3.11518,3.11518,0,0,1,644.55176,75.50514Z"/><path class="cls-3" d="M647.51172,72.56471a1.40931,1.40931,0,0,1-.46-1.10937,1.38383,1.38383,0,0,1,.46-1.10059,2.14959,2.14959,0,0,1,2.50976.00977,1.377,1.377,0,0,1,.47071,1.09082,1.41252,1.41252,0,0,1-.46,1.10937,2.14121,2.14121,0,0,1-2.52051,0Zm.16992,11.79a1.30163,1.30163,0,0,1-.42969-1.05957v-7.2998a1.29176,1.29176,0,0,1,.43946-1.06055,1.64929,1.64929,0,0,1,1.08007-.35938,1.61007,1.61007,0,0,1,1.07032.35938,1.30669,1.30669,0,0,1,.42968,1.06055v7.2998a1.30462,1.30462,0,0,1-.42968,1.05957,1.61075,1.61075,0,0,1-1.07032.36035A1.64051,1.64051,0,0,1,647.68164,84.35475Z"/><path class="cls-3" d="M660.94824,75.56471a4.77755,4.77755,0,0,1,.85938,3.11035v4.62012a1.34838,1.34838,0,0,1-.41016,1.04,1.57039,1.57039,0,0,1-1.10937.37988,1.535,1.535,0,0,1-1.10059-.37988,1.3662,1.3662,0,0,1-.39941-1.04V78.81471a2.32968,2.32968,0,0,0-.37012-1.46,1.38859,1.38859,0,0,0-1.15039-.46,1.98365,1.98365,0,0,0-1.50977.60059,2.2253,2.2253,0,0,0-.57031,1.5996v4.2002a1.3662,1.3662,0,0,1-.39941,1.04,1.53661,1.53661,0,0,1-1.10059.37988,1.56716,1.56716,0,0,1-1.10938-.37988,1.34841,1.34841,0,0,1-.41015-1.04V75.95534a1.26824,1.26824,0,0,1,.42969-1,1.61165,1.61165,0,0,1,1.11035-.37989,1.4088,1.4088,0,0,1,1.00976.36914,1.253,1.253,0,0,1,.38965.9502v.28027a3.43511,3.43511,0,0,1,1.35059-1.21972,4.078,4.078,0,0,1,1.87011-.41993A3.22154,3.22154,0,0,1,660.94824,75.56471Z"/><path class="cls-3" d="M663.88672,72.56471a1.40931,1.40931,0,0,1-.46-1.10937,1.38383,1.38383,0,0,1,.46-1.10059,2.14959,2.14959,0,0,1,2.50976.00977,1.377,1.377,0,0,1,.47071,1.09082,1.41252,1.41252,0,0,1-.46,1.10937,2.14121,2.14121,0,0,1-2.52051,0Zm.16992,11.79a1.30163,1.30163,0,0,1-.42969-1.05957v-7.2998a1.29176,1.29176,0,0,1,.43946-1.06055,1.64929,1.64929,0,0,1,1.08007-.35938,1.61007,1.61007,0,0,1,1.07032.35938,1.30669,1.30669,0,0,1,.42968,1.06055v7.2998a1.30462,1.30462,0,0,1-.42968,1.05957,1.61075,1.61075,0,0,1-1.07032.36035A1.64051,1.64051,0,0,1,664.05664,84.35475Z"/><path class="cls-3" d="M683.10254,75.50514a4.73167,4.73167,0,0,1,.86035,3.16992v4.62012a1.31747,1.31747,0,0,1-.41992,1.05957,1.60165,1.60165,0,0,1-1.08008.36035,1.64818,1.64818,0,0,1-1.08008-.36035,1.29031,1.29031,0,0,1-.44043-1.05957V78.635a2.11782,2.11782,0,0,0-.3291-1.34961,1.25046,1.25046,0,0,0-1.01074-.39062,1.67939,1.67939,0,0,0-1.33984.58008,2.40538,2.40538,0,0,0-.5,1.62011v4.2002a1.31744,1.31744,0,0,1-.41993,1.05957,1.59989,1.59989,0,0,1-1.08007.36035,1.64818,1.64818,0,0,1-1.08008-.36035,1.28974,1.28974,0,0,1-.43946-1.05957V78.635a2.11724,2.11724,0,0,0-.33007-1.34961,1.25048,1.25048,0,0,0-1.01075-.39062,1.67941,1.67941,0,0,0-1.33984.58008,2.40538,2.40538,0,0,0-.5,1.62011v4.2002a1.30459,1.30459,0,0,1-.42969,1.05957,1.61072,1.61072,0,0,1-1.07031.36035,1.65,1.65,0,0,1-1.08008-.36035,1.28973,1.28973,0,0,1-.43945-1.05957V75.95534a1.22987,1.22987,0,0,1,.45019-1.02051,1.68739,1.68739,0,0,1,1.08985-.35938,1.46411,1.46411,0,0,1,1,.34961,1.22094,1.22094,0,0,1,.39941.96973V76.095a3.2157,3.2157,0,0,1,1.25-1.16015,3.74175,3.74175,0,0,1,1.75-.39942,3.466,3.466,0,0,1,1.79.42969,2.78192,2.78192,0,0,1,1.12988,1.38965,3.39677,3.39677,0,0,1,1.31055-1.33008,3.79728,3.79728,0,0,1,1.92969-.48926A3.11518,3.11518,0,0,1,683.10254,75.50514Z"/><path class="cls-3" d="M687.76855,84.12526a4.41477,4.41477,0,0,1-1.81933-1.78028,6.05208,6.05208,0,0,1,0-5.41992,4.357,4.357,0,0,1,1.81933-1.7705,6.37344,6.37344,0,0,1,5.48047,0,4.37074,4.37074,0,0,1,1.82032,1.7705,6.06046,6.06046,0,0,1,0,5.41992,4.4288,4.4288,0,0,1-1.82032,1.78028,6.27551,6.27551,0,0,1-5.48047,0ZM692.709,79.635a3.314,3.314,0,0,0-.57031-2.12011,1.98027,1.98027,0,0,0-1.62988-.7002q-2.2002,0-2.2002,2.82031,0,2.81984,2.2002,2.82032Q692.709,82.45534,692.709,79.635Z"/><path class="cls-4" d="M589.29,100.177a4.06343,4.06343,0,0,1,1.58008,1.60058,4.81444,4.81444,0,0,1,.57031,2.37012,4.73356,4.73356,0,0,1-.68066,2.54,4.49222,4.49222,0,0,1-1.91993,1.69922,6.48632,6.48632,0,0,1-2.85937.60058,8.33986,8.33986,0,0,1-2.43067-.36035,6.60835,6.60835,0,0,1-2.0498-1,1.7522,1.7522,0,0,1-.46973-.5498,1.47627,1.47627,0,0,1-.15039-.69043,1.64161,1.64161,0,0,1,.33985-1.04981,1.03453,1.03453,0,0,1,.83984-.42969,1.34415,1.34415,0,0,1,.5.08008,6.14167,6.14167,0,0,1,.60059.29981l.39941.20019a11.019,11.019,0,0,0,1.13086.4795,3.30856,3.30856,0,0,0,1.10937.18066,2.55907,2.55907,0,0,0,1.66016-.4502,1.73208,1.73208,0,0,0,.54-1.41015,1.78256,1.78256,0,0,0-.55957-1.40039,2.26454,2.26454,0,0,0-1.56055-.5,5.48323,5.48323,0,0,0-1.08984.10058,7.09816,7.09816,0,0,0-1.15039.35938,1.90019,1.90019,0,0,1-.89942.2207,1.3834,1.3834,0,0,1-.94043-.33008,1.09663,1.09663,0,0,1-.37988-.87011V96.44752a1.73231,1.73231,0,0,1,.44043-1.28027,1.70483,1.70483,0,0,1,1.25977-.43945h6.20019q1.74024,0,1.73926,1.37988,0,1.40038-1.73926,1.39941H585v2.46a5.01173,5.01173,0,0,1,1.98047-.35938A4.61973,4.61973,0,0,1,589.29,100.177Z"/><path class="cls-4" d="M594.31543,107.14772a8.92865,8.92865,0,0,1-1.37988-5.37988,8.88971,8.88971,0,0,1,1.37988-5.36036,5.21994,5.21994,0,0,1,7.99023,0,8.84043,8.84043,0,0,1,1.38965,5.36036,8.92865,8.92865,0,0,1-1.37988,5.37988,5.23222,5.23222,0,0,1-8,0Zm5.37988-1.96a9.949,9.949,0,0,0,.41992-3.41992,9.87265,9.87265,0,0,0-.41992-3.40039,1.43729,1.43729,0,0,0-2.75976-.00977,9.85773,9.85773,0,0,0-.41993,3.41016,9.94893,9.94893,0,0,0,.41993,3.41992,1.4354,1.4354,0,0,0,2.75976,0Z"/><path class="cls-4" d="M621.415,107.2278a1.71581,1.71581,0,0,1-.46973,1.17968,1.47086,1.47086,0,0,1-1.12988.51954,1.68924,1.68924,0,0,1-1.12012-.5l-4.06054-3.85938v2.7002a1.51087,1.51087,0,0,1-.50977,1.23925,2.13046,2.13046,0,0,1-2.54,0,1.51087,1.51087,0,0,1-.50976-1.23925V96.28737a1.51423,1.51423,0,0,1,.50976-1.24024,2.13051,2.13051,0,0,1,2.54,0,1.51424,1.51424,0,0,1,.50977,1.24024v6.78027l3.70019-3.75976a1.55024,1.55024,0,0,1,2.29-.03028,1.52937,1.52937,0,0,1,.49023,1.10938,1.587,1.587,0,0,1-.5205,1.14062l-2.17969,2.16016,2.48047,2.37988A1.56157,1.56157,0,0,1,621.415,107.2278Z"/><path class="cls-4" d="M632.6084,99.23756a1.55257,1.55257,0,0,1,.48047,1.18946v7.20019a4.60593,4.60593,0,0,1-1.46973,3.7002,6.45977,6.45977,0,0,1-4.31055,1.25976,10.35515,10.35515,0,0,1-2.08007-.20019,5.75639,5.75639,0,0,1-1.66016-.5791,1.60237,1.60237,0,0,1-.56934-.52051,1.279,1.279,0,0,1-.21-.71973,1.45375,1.45375,0,0,1,.29-.94043.91525.91525,0,0,1,.75-.35937,5.20746,5.20746,0,0,1,1.29981.2998q.61962.19922,1.09961.30957a4.38064,4.38064,0,0,0,.98046.11035,2.63524,2.63524,0,0,0,1.79-.50976,2.05957,2.05957,0,0,0,.56934-1.61035v-.75977a3.03453,3.03453,0,0,1-1.25977,1.0498,4.09245,4.09245,0,0,1-1.77929.38965,4.34875,4.34875,0,0,1-2.28028-.59961,4.086,4.086,0,0,1-1.56054-1.71,5.6371,5.6371,0,0,1-.55957-2.57031,5.70227,5.70227,0,0,1,.55957-2.58008,4.13887,4.13887,0,0,1,1.56054-1.72949,4.28408,4.28408,0,0,1,2.28028-.61035,4.054,4.054,0,0,1,1.7998.40039,3.00224,3.00224,0,0,1,1.25977,1.09961,1.4329,1.4329,0,0,1,.50976-1.07031,1.8655,1.8655,0,0,1,1.23047-.38965A1.79413,1.79413,0,0,1,632.6084,99.23756Zm-3.54,6.07032a2.37471,2.37471,0,0,0,.52051-1.64063,2.45415,2.45415,0,0,0-.52051-1.66016,2.06428,2.06428,0,0,0-2.89941-.00976,2.44513,2.44513,0,0,0-.52051,1.66992,2.34918,2.34918,0,0,0,.53027,1.62988,1.82571,1.82571,0,0,0,1.42969.58985A1.85841,1.85841,0,0,0,629.06836,105.30788Z"/><path class="cls-3" d="M842.1709,84.40456a6.11185,6.11185,0,0,1-2.21973-1.04981,1.40152,1.40152,0,0,1-.43066-.46973,1.4722,1.4722,0,0,1,.18066-1.50976.90192.90192,0,0,1,.71-.37988,1.36952,1.36952,0,0,1,.42969.06933,2.72,2.72,0,0,1,.50977.25,6.69726,6.69726,0,0,0,1.74023.79,7.07458,7.07458,0,0,0,1.94043.25,3.82,3.82,0,0,0,2.01953-.43945,1.40429,1.40429,0,0,0,.7002-1.26074,1.13412,1.13412,0,0,0-.65039-1,8.36671,8.36671,0,0,0-2.30957-.71973,12.74283,12.74283,0,0,1-2.96973-.91992,3.84809,3.84809,0,0,1-1.62012-1.33985,3.53588,3.53588,0,0,1-.51074-1.94043,3.77546,3.77546,0,0,1,.73047-2.26953,4.83966,4.83966,0,0,1,2.01953-1.58008,7.13174,7.13174,0,0,1,2.91016-.57031,7.44216,7.44216,0,0,1,4.68066,1.41992,1.61048,1.61048,0,0,1,.42969.49024,1.3083,1.3083,0,0,1,.12988.61035,1.35394,1.35394,0,0,1-.30957.87988.90473.90473,0,0,1-.71.37988,1.34759,1.34759,0,0,1-.41016-.05957,2.82453,2.82453,0,0,1-.53027-.26074,8.37788,8.37788,0,0,0-1.50977-.77929,5.009,5.009,0,0,0-1.75-.26075,3.40419,3.40419,0,0,0-1.91992.47071,1.47454,1.47454,0,0,0-.70019,1.29,1.16243,1.16243,0,0,0,.26953.79,2.25859,2.25859,0,0,0,.90039.54981,13.79686,13.79686,0,0,0,1.79.5,9.93288,9.93288,0,0,1,3.91015,1.54,3.10881,3.10881,0,0,1,1.18946,2.58008,3.74886,3.74886,0,0,1-.71,2.25976,4.57476,4.57476,0,0,1-2,1.51953,7.68446,7.68446,0,0,1-2.98926.54A11.14869,11.14869,0,0,1,842.1709,84.40456Z"/><path class="cls-3" d="M858.47461,82.81471a1.11355,1.11355,0,0,1-.17969,1.64063,2.14516,2.14516,0,0,1-1.32031.23925l-.55957-.04q-3.501-.2798-3.5-3.65918v-3.96h-.80078a1.50462,1.50462,0,0,1-1-.29,1.03215,1.03215,0,0,1-.33985-.83008,1.05718,1.05718,0,0,1,.33985-.85059,1.50995,1.50995,0,0,1,1-.29h.80078V73.2151a1.34633,1.34633,0,0,1,.40918-1.04,1.57128,1.57128,0,0,1,1.11035-.37988,1.53251,1.53251,0,0,1,1.09961.37988,1.36533,1.36533,0,0,1,.40039,1.04v1.55957H857.335q1.35938,0,1.35938,1.14063a1.03215,1.03215,0,0,1-.33985.83008,1.53752,1.53752,0,0,1-1.01953.29h-1.40039V81.2151a1.31392,1.31392,0,0,0,.28027.91016,1.16852,1.16852,0,0,0,.81934.34961l.56055.04A1.41367,1.41367,0,0,1,858.47461,82.81471Z"/><path class="cls-3" d="M867.23633,75.58522a4.39868,4.39868,0,0,1,1.04,3.21v4.51953a1.37178,1.37178,0,0,1-.37989,1.03027,1.45643,1.45643,0,0,1-1.06054.37012,1.3948,1.3948,0,0,1-1.03028-.38965,1.369,1.369,0,0,1-.38964-1.01074v-.13965a2.35754,2.35754,0,0,1-1,1.16016,3.13378,3.13378,0,0,1-1.63965.41992,4.03462,4.03462,0,0,1-1.81055-.40039,3.15864,3.15864,0,0,1-1.2793-1.12012,2.86147,2.86147,0,0,1-.4707-1.59961,2.47568,2.47568,0,0,1,.5498-1.70019,3.2901,3.2901,0,0,1,1.77051-.89942,15.64225,15.64225,0,0,1,3.33985-.28027h.5205v-.36035a1.70324,1.70324,0,0,0-.37011-1.21973,1.67054,1.67054,0,0,0-1.23047-.37988,7.87489,7.87489,0,0,0-2.47949.59961,1.87872,1.87872,0,0,1-.78028.21973.864.864,0,0,1-.70019-.30957,1.219,1.219,0,0,1-.25977-.80957,1.13227,1.13227,0,0,1,.17969-.66016,1.66914,1.66914,0,0,1,.58008-.48047,6.49425,6.49425,0,0,1,1.71-.59961,9.34148,9.34148,0,0,1,1.99023-.21973A4.33317,4.33317,0,0,1,867.23633,75.58522Zm-2.37988,6.5a2.18113,2.18113,0,0,0,.54-1.53027V80.2151h-.34082a6.84221,6.84221,0,0,0-2.26953.25977.942.942,0,0,0-.65039.94043,1.19519,1.19519,0,0,0,.37012.91015,1.30047,1.30047,0,0,0,.93066.34961A1.83441,1.83441,0,0,0,864.85645,82.08522Z"/><path class="cls-3" d="M876.46777,82.81471a1.11354,1.11354,0,0,1-.17968,1.64063,2.14517,2.14517,0,0,1-1.32032.23925l-.55957-.04q-3.501-.2798-3.5-3.65918v-3.96h-.80078a1.50464,1.50464,0,0,1-1-.29,1.03214,1.03214,0,0,1-.33984-.83008,1.05717,1.05717,0,0,1,.33984-.85059,1.51,1.51,0,0,1,1-.29h.80078V73.2151a1.34636,1.34636,0,0,1,.40918-1.04,1.5713,1.5713,0,0,1,1.11035-.37988,1.53251,1.53251,0,0,1,1.09961.37988,1.36529,1.36529,0,0,1,.40039,1.04v1.55957h1.40039q1.35939,0,1.35938,1.14063a1.03214,1.03214,0,0,1-.33984.83008,1.53757,1.53757,0,0,1-1.01954.29h-1.40039V81.2151a1.31393,1.31393,0,0,0,.28028.91016,1.1685,1.1685,0,0,0,.81933.34961l.56055.04A1.41367,1.41367,0,0,1,876.46777,82.81471Z"/><path class="cls-3" d="M879.33789,84.12526a4.41486,4.41486,0,0,1-1.81934-1.78028,6.05217,6.05217,0,0,1,0-5.41992,4.35712,4.35712,0,0,1,1.81934-1.7705,6.37344,6.37344,0,0,1,5.48047,0,4.37072,4.37072,0,0,1,1.82031,1.7705,6.06037,6.06037,0,0,1,0,5.41992,4.42877,4.42877,0,0,1-1.82031,1.78028,6.27551,6.27551,0,0,1-5.48047,0Zm4.94043-4.49024a3.314,3.314,0,0,0-.57031-2.12011,1.98029,1.98029,0,0,0-1.62989-.7002q-2.20019,0-2.20019,2.82031,0,2.81984,2.20019,2.82032Q884.27832,82.45534,884.27832,79.635Z"/><path class="cls-3" d="M903.4082,70.77467a1.26964,1.26964,0,0,1,.42969,1V83.29518a1.35987,1.35987,0,0,1-.40918,1.03027,1.72032,1.72032,0,0,1-2.18066,0,1.357,1.357,0,0,1-.41016-1.03027V83.135a3.07559,3.07559,0,0,1-1.25,1.19043,3.8464,3.8464,0,0,1-1.83008.42969,4.00659,4.00659,0,0,1-2.25-.65039,4.31086,4.31086,0,0,1-1.53906-1.81934A6.24909,6.24909,0,0,1,893.418,79.595a6.11625,6.11625,0,0,1,.55078-2.66992,4.02024,4.02024,0,0,1,3.78906-2.38965,3.87081,3.87081,0,0,1,1.81055.41993,3.00725,3.00725,0,0,1,1.25,1.17968V71.7151a1.22527,1.22527,0,0,1,.40039-.96,1.52,1.52,0,0,1,1.05957-.36035A1.64568,1.64568,0,0,1,903.4082,70.77467Zm-3.13965,10.9502a3.332,3.332,0,0,0,.56934-2.08985,3.29181,3.29181,0,0,0-.56934-2.08007,1.95889,1.95889,0,0,0-1.62988-.71973,1.99781,1.99781,0,0,0-1.64062.71,3.16851,3.16851,0,0,0-.58008,2.0498,3.37985,3.37985,0,0,0,.58008,2.11036,2.17644,2.17644,0,0,0,3.2705.01953Z"/><path class="cls-3" d="M905.99805,72.56471a1.40931,1.40931,0,0,1-.46-1.10937,1.38383,1.38383,0,0,1,.46-1.10059,2.14959,2.14959,0,0,1,2.50976.00977,1.377,1.377,0,0,1,.47071,1.09082,1.41249,1.41249,0,0,1-.46,1.10937,2.14119,2.14119,0,0,1-2.5205,0Zm.16992,11.79a1.30163,1.30163,0,0,1-.42969-1.05957v-7.2998a1.29179,1.29179,0,0,1,.43945-1.06055,1.64932,1.64932,0,0,1,1.08008-.35938,1.61,1.61,0,0,1,1.07031.35938,1.30667,1.30667,0,0,1,.42969,1.06055v7.2998a1.30459,1.30459,0,0,1-.42969,1.05957,1.6107,1.6107,0,0,1-1.07031.36035A1.64051,1.64051,0,0,1,906.168,84.35475Z"/><path class="cls-3" d="M917.457,84.555a4.7947,4.7947,0,0,1-1.58008-.63965,1.22789,1.22789,0,0,1-.46-.48047,1.42546,1.42546,0,0,1-.16015-.67969,1.15746,1.15746,0,0,1,.26074-.77051.805.805,0,0,1,.63965-.30957,1.59929,1.59929,0,0,1,.5205.08985c.17286.06054.35254.12988.53907.21a7.10687,7.10687,0,0,0,1.10058.41015,5.105,5.105,0,0,0,1.33985.15039,2.22577,2.22577,0,0,0,1.08984-.2207.66916.66916,0,0,0,.39063-.59961.60969.60969,0,0,0-.1709-.45019,1.55524,1.55524,0,0,0-.62989-.30957q-.46-.14062-1.46-.34082a5.50485,5.50485,0,0,1-2.55957-1.01954,2.38588,2.38588,0,0,1-.78027-1.90039,2.60125,2.60125,0,0,1,.5498-1.61914,3.65841,3.65841,0,0,1,1.51075-1.13086,5.45962,5.45962,0,0,1,2.15918-.40918,6.46953,6.46953,0,0,1,1.68066.21973,5.36236,5.36236,0,0,1,1.46.62012,1.33481,1.33481,0,0,1,.35938,1.91992.7951.7951,0,0,1-.63965.31934,2.33377,2.33377,0,0,1-1.09961-.35938,5.91834,5.91834,0,0,0-.91016-.39062,3.24666,3.24666,0,0,0-.96972-.12989,1.80713,1.80713,0,0,0-.98047.23047.71232.71232,0,0,0-.36035.62988.69256.69256,0,0,0,.41992.63965,6.53191,6.53191,0,0,0,1.62011.44043,8.79874,8.79874,0,0,1,2.10059.62989,2.54,2.54,0,0,1,1.09961.92968,2.70315,2.70315,0,0,1,.33984,1.41993A2.64382,2.64382,0,0,1,922.707,83.9153a5.26168,5.26168,0,0,1-3.12988.83984A9.90963,9.90963,0,0,1,917.457,84.555Z"/><path class="cls-3" d="M932.79785,75.58522a4.39868,4.39868,0,0,1,1.04,3.21v4.51953A1.37177,1.37177,0,0,1,933.458,84.345a1.45645,1.45645,0,0,1-1.06055.37012,1.39476,1.39476,0,0,1-1.03027-.38965,1.369,1.369,0,0,1-.38965-1.01074v-.13965a2.35749,2.35749,0,0,1-1,1.16016,3.13376,3.13376,0,0,1-1.63965.41992,4.03462,4.03462,0,0,1-1.81055-.40039,3.15862,3.15862,0,0,1-1.27929-1.12012,2.8614,2.8614,0,0,1-.47071-1.59961,2.47568,2.47568,0,0,1,.54981-1.70019,3.29006,3.29006,0,0,1,1.77051-.89942,15.64208,15.64208,0,0,1,3.33984-.28027h.52051v-.36035a1.70324,1.70324,0,0,0-.37012-1.21973,1.67054,1.67054,0,0,0-1.23047-.37988,7.875,7.875,0,0,0-2.47949.59961,1.87868,1.87868,0,0,1-.78027.21973.864.864,0,0,1-.7002-.30957,1.219,1.219,0,0,1-.25976-.80957,1.13234,1.13234,0,0,1,.17968-.66016,1.66914,1.66914,0,0,1,.58008-.48047,6.49438,6.49438,0,0,1,1.71-.59961,9.34157,9.34157,0,0,1,1.99024-.21973A4.33316,4.33316,0,0,1,932.79785,75.58522Zm-2.37988,6.5a2.18114,2.18114,0,0,0,.54-1.53027V80.2151h-.34082a6.84213,6.84213,0,0,0-2.26953.25977.942.942,0,0,0-.65039.94043,1.19518,1.19518,0,0,0,.37011.91015,1.30048,1.30048,0,0,0,.93067.34961A1.83439,1.83439,0,0,0,930.418,82.08522Z"/><path class="cls-3" d="M936.11719,84.35475a1.30163,1.30163,0,0,1-.42969-1.05957V71.81471a1.303,1.303,0,0,1,.42969-1.05957,1.64051,1.64051,0,0,1,1.08984-.36035,1.61072,1.61072,0,0,1,1.07031.36035,1.30593,1.30593,0,0,1,.42969,1.05957V83.29518a1.30459,1.30459,0,0,1-.42969,1.05957,1.61072,1.61072,0,0,1-1.07031.36035A1.64051,1.64051,0,0,1,936.11719,84.35475Z"/><path class="cls-3" d="M949.667,74.95534a1.347,1.347,0,0,1,.41016,1.04v7.33984a1.27138,1.27138,0,0,1-.42969,1,1.61807,1.61807,0,0,1-1.11035.37988,1.42345,1.42345,0,0,1-1.02051-.36035,1.26128,1.26128,0,0,1-.37988-.96v-.2002a3.1059,3.1059,0,0,1-1.21,1.16016,4.05566,4.05566,0,0,1-4.46-.62988,4.58344,4.58344,0,0,1-.91016-3.11035V75.99538a1.347,1.347,0,0,1,.41016-1.04,1.56684,1.56684,0,0,1,1.11035-.37989,1.52826,1.52826,0,0,1,1.09961.37989,1.36533,1.36533,0,0,1,.40039,1.04v4.67968a1.9252,1.9252,0,0,0,.37012,1.29981,1.4258,1.4258,0,0,0,1.12988.41992,1.85012,1.85012,0,0,0,1.42969-.59961,2.24514,2.24514,0,0,0,.5498-1.58008V75.99538a1.36533,1.36533,0,0,1,.40039-1.04,1.52826,1.52826,0,0,1,1.09961-.37989A1.56686,1.56686,0,0,1,949.667,74.95534Z"/><path class="cls-3" d="M958.48926,82.81471a1.11355,1.11355,0,0,1-.17969,1.64063,2.14516,2.14516,0,0,1-1.32031.23925l-.55957-.04q-3.501-.2798-3.5-3.65918v-3.96h-.80078a1.50462,1.50462,0,0,1-1-.29,1.03212,1.03212,0,0,1-.33985-.83008,1.05715,1.05715,0,0,1,.33985-.85059,1.50995,1.50995,0,0,1,1-.29h.80078V73.2151a1.34633,1.34633,0,0,1,.40918-1.04,1.57126,1.57126,0,0,1,1.11035-.37988,1.53251,1.53251,0,0,1,1.09961.37988,1.36533,1.36533,0,0,1,.40039,1.04v1.55957h1.40039q1.35938,0,1.35937,1.14063a1.03214,1.03214,0,0,1-.33984.83008,1.53754,1.53754,0,0,1-1.01953.29h-1.40039V81.2151a1.31392,1.31392,0,0,0,.28027.91016,1.16852,1.16852,0,0,0,.81934.34961l.56055.04A1.41369,1.41369,0,0,1,958.48926,82.81471Z"/><path class="cls-3" d="M967.90723,81.99538a1.29419,1.29419,0,0,1,.25.81933,1.0868,1.0868,0,0,1-.2002.62988,1.6174,1.6174,0,0,1-.56055.49024,7.08974,7.08974,0,0,1-1.58007.58984,6.73945,6.73945,0,0,1-1.65918.23047,5.95806,5.95806,0,0,1-2.79-.62012,4.3271,4.3271,0,0,1-1.83008-1.7705,5.48137,5.48137,0,0,1-.64063-2.71,5.5559,5.5559,0,0,1,.62012-2.65918,4.54471,4.54471,0,0,1,1.71973-1.81055,4.82891,4.82891,0,0,1,2.5-.64942,4.57426,4.57426,0,0,1,2.35058.58985,4.03706,4.03706,0,0,1,1.57032,1.67969,5.5127,5.5127,0,0,1,.55957,2.5498.95986.95986,0,0,1-.21.66992.75861.75861,0,0,1-.58985.23047h-5.60058a2.6677,2.6677,0,0,0,.7207,1.71,2.374,2.374,0,0,0,1.66016.53028,3.55205,3.55205,0,0,0,1.03906-.14063,9.85947,9.85947,0,0,0,1.02051-.37988c.18652-.08008.36621-.14942.54-.21a1.43677,1.43677,0,0,1,.46-.08985A.787.787,0,0,1,967.90723,81.99538Zm-5.47071-4.83008a2.6124,2.6124,0,0,0-.62011,1.58984h3.86035a2.61172,2.61172,0,0,0-.53028-1.60058,1.67123,1.67123,0,0,0-1.33007-.54A1.80873,1.80873,0,0,0,962.43652,77.1653Z"/><path class="cls-4" d="M848.45117,99.36745a4.148,4.148,0,0,1,1.5293,1.76953,6.12065,6.12065,0,0,1,.55078,2.6709,6.311,6.311,0,0,1-.55078,2.69921,4.28181,4.28181,0,0,1-1.53906,1.83008,4.21225,4.21225,0,0,1-4.041.25,2.86882,2.86882,0,0,1-1.22851-1.09961,1.50086,1.50086,0,0,1-.53126,1.07032,1.86,1.86,0,0,1-1.22851.38964,1.76336,1.76336,0,0,1-1.27149-.45019,1.5724,1.5724,0,0,1-.46874-1.18945V96.2278a1.47627,1.47627,0,0,1,.5-1.15039,1.89753,1.89753,0,0,1,1.32031-.4502,1.84832,1.84832,0,0,1,1.25976.41992,1.41247,1.41247,0,0,1,.47852,1.12012v3.98047a3.0766,3.0766,0,0,1,1.23047-1.02051,3.94716,3.94716,0,0,1,1.73047-.37988A4.13487,4.13487,0,0,1,848.45117,99.36745Zm-1.93945,6.30957a3.02384,3.02384,0,0,0,.5-1.86914,2.81867,2.81867,0,0,0-.49024-1.78028,1.69163,1.69163,0,0,0-1.41015-.62012,1.72712,1.72712,0,0,0-1.43945.62989,2.85007,2.85007,0,0,0-.5,1.80957,2.93265,2.93265,0,0,0,.5,1.84082,1.88541,1.88541,0,0,0,2.83984-.01074Z"/><path class="cls-4" d="M861.64258,99.2278a1.55084,1.55084,0,0,1,.47851,1.19922v6.91992a1.47488,1.47488,0,0,1-.5,1.15039,1.86526,1.86526,0,0,1-1.29882.45019,1.75719,1.75719,0,0,1-1.17969-.38964,1.35479,1.35479,0,0,1-.48047-1.05079,3.12876,3.12876,0,0,1-1.16992,1.10059,3.41276,3.41276,0,0,1-1.63086.37988,3.55879,3.55879,0,0,1-2.82031-1.0498,4.73475,4.73475,0,0,1-.91993-3.19043V100.427a1.5454,1.5454,0,0,1,.48047-1.19922,2.13822,2.13822,0,0,1,2.59961,0,1.5454,1.5454,0,0,1,.48047,1.19922v4.40039q0,1.43994,1.24024,1.44043a1.50321,1.50321,0,0,0,1.17968-.52051,1.97729,1.97729,0,0,0,.46094-1.36035v-3.96a1.54408,1.54408,0,0,1,.47852-1.19922,2.1411,2.1411,0,0,1,2.60156,0Z"/><path class="cls-4" d="M866.32227,108.35768a4.5122,4.5122,0,0,1-1.90039-1.79,5.83777,5.83777,0,0,1,0-5.43066,4.48149,4.48149,0,0,1,1.88867-1.76953,6.90685,6.90685,0,0,1,5.7207,0,4.49781,4.49781,0,0,1,1.89063,1.76953,5.83785,5.83785,0,0,1,0,5.43066,4.54463,4.54463,0,0,1-1.89063,1.79,6.78291,6.78291,0,0,1-5.709,0Zm4.75-4.51074q0-2.47853-1.90039-2.47949-1.90137,0-1.9004,2.47949,0,2.48144,1.9004,2.48047Q871.07031,106.32741,871.07227,103.84694Z"/><path class="cls-4" d="M885.46094,99.79713a4.96188,4.96188,0,0,1,.85937,3.19043v4.32032a1.54267,1.54267,0,0,1-.47851,1.19921,2.14111,2.14111,0,0,1-2.60157,0,1.54942,1.54942,0,0,1-.47851-1.19921v-4.16016a2.09824,2.09824,0,0,0-.31055-1.28027,1.10534,1.10534,0,0,0-.92969-.40039,1.63825,1.63825,0,0,0-1.26953.51074,1.937,1.937,0,0,0-.4707,1.36914v3.96094a1.544,1.544,0,0,1-.48047,1.19921,2.13822,2.13822,0,0,1-2.59961,0,1.544,1.544,0,0,1-.48047-1.19921V100.387a1.48215,1.48215,0,0,1,.5-1.14942,1.87369,1.87369,0,0,1,1.30078-.45019,1.698,1.698,0,0,1,1.209.41992,1.43493,1.43493,0,0,1,.45117,1.10059,3.40071,3.40071,0,0,1,1.33984-1.16016,4.09464,4.09464,0,0,1,1.82032-.40039A3.18686,3.18686,0,0,1,885.46094,99.79713Z"/><path class="cls-4" d="M890.44922,108.35768a4.52355,4.52355,0,0,1-1.90039-1.79,5.83785,5.83785,0,0,1,0-5.43066,4.48642,4.48642,0,0,1,1.89062-1.76953,6.90687,6.90687,0,0,1,5.72071,0,4.49284,4.49284,0,0,1,1.88867,1.76953,5.83785,5.83785,0,0,1,0,5.43066,4.53967,4.53967,0,0,1-1.88867,1.79,6.78735,6.78735,0,0,1-5.71094,0Zm4.75-4.51074q0-2.47853-1.90039-2.47949-1.89845,0-1.90039,2.47949,0,2.48144,1.90039,2.48047Q895.2002,106.32741,895.19922,103.84694Z"/><path class="cls-5" d="M195.62536,351.48824c-1.96274,5.017-12.01266,15.34765-22.37149,25.10348-12.3699,11.655-25.18035,22.48981-25.18035,22.48981s-5.85587,1.787-3.30265-6.82944c0,0,14.12184-25.94614,20.1854-33.60573,1.73258-2.186,3.52335-4.18377,5.20224-5.9232a83.22267,83.22267,0,0,1,7.66528-7.07175s-.79474-1.2768-2.08409-3.48529c-6.30249-10.79332-24.39469-43.8432-18.80669-58.51746,6.72748-17.67679,23.44739-25.63916,23.44739-25.63916s5.30423,22.36845,9.77827,45.36232C194.27512,324.5274,197.69005,346.213,195.62536,351.48824Z"/><path class="cls-6" d="M190.15867,303.37182c-3.08009,14.1603-8.41245,34.1924-14.419,38.7943-6.30249-10.79332-24.39469-43.8432-18.80669-58.51746,6.72748-17.67679,23.44739-25.63916,23.44739-25.63916S185.68463,280.378,190.15867,303.37182Z"/><path class="cls-6" d="M173.25387,376.59172c-12.3699,11.655-25.18035,22.48981-25.18035,22.48981s-5.85587,1.787-3.30265-6.82944c0,0,14.12184-25.94614,20.1854-33.60573,1.73258-2.186,3.52335-4.18377,5.20224-5.9232C169.96033,359.34561,170.14866,370.58216,173.25387,376.59172Z"/><path class="cls-7" d="M187.74893,291.38694s-14.65486-36.78131-13.88256-37.84353c.4786-.66428,1.4107-20.73136,2.04568-35.81083.38615-9.17221.66388-16.50233.66388-16.50233s6.49463,2.31352,8.04878,18.11086c.29978,3.04779.47555,5.91712.58055,8.59469.43714,11.21107-.38273,19.1069,1.29238,22.84062,2.07459,4.62738,1.33081,25.74489,1.96956,27.87047C189.10521,280.77551,192.40522,286.09225,187.74893,291.38694Z"/><path class="cls-5" d="M176.16352,266.87659l-1.16874-4.30933c-8.22794,3.55985-32.4172-1.64582-32.4172-1.64582s-7.2076,8.54066-3.49709,25.86893c1.81091,8.45737,8.21843,44.59042,10.84162,55.17372.9496,3.83567,1.68579,6.55626,1.98253,7.64283l.00456.01029a1.55282,1.55282,0,0,1-.10651.98762,50.97893,50.97893,0,0,0-2.56616,8.43948c-5.984,28.03753,10.40947,59.00561,10.40947,59.00561l2.80314-1.64924s1.09113-37.36076,3.99813-54.22906a32.20744,32.20744,0,0,1,1.639-6.53191c1.752-4.07652,2.98386-10.49276,3.84483-18.03287,1.62563-14.25578,1.91591-32.52792,1.825-46.58474C174.03,290.994,176.16352,266.87659,176.16352,266.87659Z"/><path class="cls-7" d="M139.04168,271.44689c-3.34414-5.06145,8.13168-25.74146,7.72348-27.69165a55.384,55.384,0,0,0-4.54444-11.9263c-1.85431-3.82656-3.66714-7.22509-4.31505-9.35371.5973-.83011,1.18089-1.60888,1.72038-2.34277a20.82937,20.82937,0,0,0,1.99811-3.13681,4.32523,4.32523,0,0,0,.48164-2.99376,14.66,14.66,0,0,0-.75021-2.14151q-.21517-.49766-.45959-.98575a30.73423,30.73423,0,0,0-4.26028-6.20436c4.03923-2.58933,10.40717-3.90946,10.46425-3.71771.47252-.15638.89061-.26822,1.22884-.35459.23321-.06012.47252-.11793.70838-.172.80124-.19175,1.60818-.35764,2.30439-.48546,1.45216-1.45523,3.18508-6.84883,2.665-14.79488l.70191.0921,11.76995,1.58948s-.03845,3.67973.16246,7.12657c.15976,2.69662.46944,5.24981,1.05993,5.80831.91231.07343,1.46127.12743,1.46127.12743s0,.00342.00646.00954a.09746.09746,0,0,0,.0194.02587c.66354.054,1.273.11146,1.83188.17539,0,0,.04757.00339.1339.01293,1.03371.11754,1.8893.24575,2.58821.36979a1.40812,1.40812,0,0,0,.14344.02891,11.29385,11.29385,0,0,1,2.69051.71826v.03464c-.09892,3.70859,5.88821,10.19372,5.47007,18.58376-.016.31576-3.06068,22.30452-3.04775,22.62982.24575,6.26178,3.31255,23.89439,3.31255,23.89439C185.10938,271.83,140.842,276.65525,139.04168,271.44689Z"/><path class="cls-8" d="M149.93162,156.87955c-.21645-.60872-2.78374-7.09688-13.00332-4.25911,0,0,5.15849-.97321,6.70578.942,0,0-4.23628-1.6344-6.7195.10234-2.48317,1.73713-2.581,7.07748-2.09663,8.67082.48393,1.59369,3.62873,6.23287,5.51573,6.11721a5.59429,5.59429,0,0,0,2.11986-.665,25.03734,25.03734,0,0,0-.59466,2.85223c-1.42589,9.55189,5.28406,16.33566,8.41744,14.36572,2.01026-1.26387,3.80716,2.27888,3.80716,2.27888l15.85477-23.93132S157.02737,149.64074,149.93162,156.87955Z"/><path class="cls-9" d="M166.4796,186.83068s-.04032,3.6763.16359,7.12466c-6.51937.21536-10.32345-5.51079-11.93467-8.71492Z"/><path class="cls-7" d="M168.85358,189.96254s-15.38225,1.19726-15.98072-8.39308c-.59843-9.59069-2.9869-15.89548,6.80926-17.06574,9.79541-1.16986,11.93392,2.37055,12.91243,5.52294C173.57267,173.17945,172.83917,189.404,168.85358,189.96254Z"/><path class="cls-8" d="M171.80967,164.72208c-2.55662-2.73921-4.31654-1.99581-5.27147-1.06678a10.78332,10.78332,0,0,0-13.70375,3.06185,18.356,18.356,0,0,1-5.32893,11.19167s2.91233,1.56174,9.28066-.49878a11.01307,11.01307,0,0,0,5.01887-3.93763,35.98334,35.98334,0,0,1-5.71968,7.93042c7.50967-4.04644,9.95444-14.98546,10.19411-16.14087a12.09739,12.09739,0,0,1,3.63177,4.26939c.91726,2.39529,1.57047,7.402,3.0257,7.14137C172.937,176.67272,175.64421,168.8298,171.80967,164.72208Z"/><path class="cls-10" d="M178.0243,418.9352H154.15461s-.89252-3.80677.67491-6.39758c1.3871-2.29221.53224-3.84748-.06658-5.79651a8.76626,8.76626,0,0,0,3.9148,1.05915,11.759,11.759,0,0,0,4.156-1.58227c1.0272,1.17177,4.82026,6.49042,6.19485,7.47808C170.58845,414.81685,177.5438,414.41776,178.0243,418.9352Z"/><path class="cls-10" d="M142.54559,418.37635l-8.98314-22.11506s3.19124-2.25948,6.18118-1.7824c2.646.4223,3.65569-.56154,5.02607-2.22715a9.27609,9.27609,0,0,0,.81149,4.00955,8.4027,8.4027,0,0,0,2.49233,2.81872c-.69812,1.39282-3.66141,7.34457-4.05937,8.99C143.56294,409.93687,146.55058,416.231,142.54559,418.37635Z"/><path class="cls-11" d="M178.99864,242.48c-.00724-.1815.9355-7.09232,1.774-13.22971a19.62218,19.62218,0,0,0,6.01907-1.54312c-.10538-2.67757-1.88817-25.584-11.51771-26.87369-.4588-.12479-.9321-.231-1.38861-.32a1.42962,1.42962,0,0,1-.14344-.02891c-1.18054-.22066-2.22754-.3348-2.58821-.37018-.086-.0095-.1339-.01293-.1339-.01293s2.87237,8.15073,2.81455,9.10831c-.054.95759-9.27723,1.27677-15.34079,1.35667-6.01565.07951-9.40163-9.983-9.45606-10.13933-.23589.05442-.47555.11149-.70841.17235-.33819.086-8.3805,1.3114-11.69344,4.0723a30.70051,30.70051,0,0,1,4.26063,6.204q.24426.488.45924.98614a14.56978,14.56978,0,0,1,.7506,2.14116,4.32517,4.32517,0,0,1-.482,2.99372,20.78691,20.78691,0,0,1-1.99811,3.13681c-.5391.73428-1.12308,1.513-1.72,2.34242a21.88847,21.88847,0,0,0,1.03406,2.61065v.00343c.86475,1.90527,2.06469,4.23172,3.2806,6.74037a55.322,55.322,0,0,1,4.54444,11.92591c.409,1.95019-11.06762,22.6302-7.72309,27.69208.533,1.53774,4.7746,2.202,10.4136,2.23053,13.442.07,34.82776-3.45938,32.85513-7.30534C182.3108,266.37364,179.244,248.74177,178.99864,242.48Z"/><path class="cls-3" d="M149.45567,273.679c-5.639-.02851-9.88061-.69279-10.4136-2.23053-3.34453-5.06188,8.13207-25.74189,7.72309-27.69208a55.322,55.322,0,0,0-4.54444-11.92591c-1.21591-2.50865-2.41585-4.8351-3.2806-6.74037V225.087c.47556-1.87329.7529-2.96481.7529-2.96481s12.21353,14.20174,15.0155,20.90332C156.90411,248.28179,151.77222,266.18874,149.45567,273.679Z"/><path class="cls-7" d="M143.65044,264.05062l-2.41586,4.18719c-15.53215-6.153-25.4257-20.01305-25.4257-20.01305-.54253-7.87035,3.14059-16.91777,7.55113-24.7238.73081-1.29278,1.48032-2.5498,2.23665-3.76263a97.65477,97.65477,0,0,0,11.62647,8.69017c-.64448,1.069-1.41678,2.34889-2.25,3.71776-3.44341,5.6778-7.89544,12.94776-8.473,13.52528C125.54262,246.62877,143.65044,264.05062,143.65044,264.05062Z"/><path class="cls-11" d="M135.60965,233.85027C127.963,233.34616,122.326,223.399,122.326,223.399a95.47706,95.47706,0,0,1,14.30977-18.72869C157.82975,212.76089,139.06716,231.56683,135.60965,233.85027Z"/><path class="cls-7" d="M143.64892,264.048a4.77245,4.77245,0,0,0,2.15866-.93137c.85142-.74452,3.564-2.84727,3.72344-2.19516.15941.65247-1.96808,1.66292-.85108,1.82273,1.117.15941,2.872-.58971,4.62777-.32148,1.75462.26822,4.45546,4.31084,3.62417,4.78909-.83167.47895-3.86384-1.11665-4.66162-.55815-.79782.55815-6.49159,3.67209-11.03681,1.58383C136.68785,266.14916,143.64892,264.048,143.64892,264.048Z"/><path class="cls-7" d="M378.50148,264.38492l.38283,1.9643a12.57373,12.57373,0,0,0-7.14887,14.12412s1.07069,4.23638,3.60651,2.19925c2.53665-2.03706,1.25032-3.89568,4.8786-6.68884,3.6283-2.794,5.93949-4.74206,5.34064-7.97069l-.68823-3.58456Z"/><path class="cls-12" d="M414.09416,180.83883s-2.62588,10.08149-4.89447,19.299c-.91349,3.71319-1.76721,7.28446-2.37172,10.00123a23.08039,23.08039,0,0,0-.83814,4.89143c1.90567,3.13526-1.723,22.16186-4.54483,29.06243-.24843.61175-.59122,1.32815-1.00211,2.12367-3.93381,7.60018-14.37561,22.50157-14.37561,22.50157a12.95257,12.95257,0,0,1-4.82864-.44358,6.37241,6.37241,0,0,1-2.66768-2.56841c.93476-1.48488,4.786-19.06615,9.66413-28.908,2.08713-4.21006,5.35749-43.3669,9.38261-48.61745C400.97478,183.801,414.09416,180.83883,414.09416,180.83883Z"/><path class="cls-4" d="M405.98983,215.03045c1.90567,3.13526-1.723,22.16186-4.54483,29.06243-.24843.61175-.59122,1.32815-1.00211,2.12367-3.61806-16.46161,2.67875-39.71347,2.67875-39.71347A7.63165,7.63165,0,0,1,406.828,210.139,23.08039,23.08039,0,0,0,405.98983,215.03045Z"/><path class="cls-13" d="M431.78688,405.28186s.89978,14.88468-1.911,15.076c-.3736.02509-14.25083-.05707-14.25083-.05707l-17.8997-.1069s.3272-4.3687,5.51043-5.24031c5.18358-.8716,13.87228-4.45923,17.04941-11.28446C423.62778,396.48934,431.78688,405.28186,431.78688,405.28186Z"/><path class="cls-14" d="M458.70928,405.44206s.89977,14.88425-1.91136,15.076c-.3736.02512-14.25044-.05743-14.25044-.05743l-17.90009-.10694s.32755-4.36866,5.51078-5.24026c5.18362-.87161,13.87189-4.45885,17.04941-11.28411C450.55021,396.6495,458.70928,405.44206,458.70928,405.44206Z"/><path class="cls-15" d="M432.84755,369.42542c.40368,6.29411,1.25285,14.38967.88988,21.68021-.50864,10.19411-.88224,18.79146-.88224,18.79146-6.737,2.2458-19.0559-.60074-19.0559-.60074s-4.22222-25.79475-7.70408-46.38687c-1.56174-9.227-2.856-17.20844-3.335-20.97641-1.5492-12.18,2.1834-76.868,2.1834-76.868s18.26034-11.55117,25.74111-5.49521c7.47808,6.05445,12.06934,11.956-.43181,77.72745C429.30406,342.28689,431.94478,355.32675,432.84755,369.42542Z"/><path class="cls-3" d="M432.84755,369.42542c.40368,6.29411,1.15467,16.368.79174,23.65853-6.28425-6.73052-18.664-20.9258-27.54408-30.17447-1.56174-9.227-2.856-17.20844-3.335-20.97641-1.5492-12.18,2.1834-76.868,2.1834-76.868s18.26034-11.55117,25.74111-5.49521c7.47808,6.05445,12.06934,11.956-.43181,77.72745C429.30406,342.28689,431.94478,355.32675,432.84755,369.42542Z"/><path class="cls-15" d="M421.37516,266.47882s1.24864,64.78458,3.7299,76.80905c2.48131,12.02482,15.47739,67.08174,15.47739,67.08174s12.48175,1.21174,19.02547-1.54539c0,0-.26406-25.46415-2.39-40.43707-1.98557-13.98756-5.6196-26.787-5.05767-31.83436,7.41073-66.53695,2.37857-72.06752-5.5439-77.53074C438.69353,253.55879,421.37516,266.47882,421.37516,266.47882Z"/><path class="cls-7" d="M446.02934,272.29663a12.574,12.574,0,0,0,3.9,15.342s3.59184,2.48847,4.16323-.71414c.57183-3.20261-.07226-2.08939.82447-6.57983.89708-4.49044-.18832-9.1456-2.76282-11.18481Z"/><path class="cls-7" d="M410.18388,166.13753s4.94964,7.62114,3.91141,14.69974l7.28481,17.851,13.45532-20.30562a46.80568,46.80568,0,0,1-9.5656-18.1767Z"/><path class="cls-7" d="M407.95522,172.60212s18.18277.89557,18.578-10.021c.39569-10.91619,5.35406-18.1504-8.24353-19.19053-11.18212-.85563-14.92878,3.787-15.94725,7.39892C401.32439,154.40108,401.21788,171.977,407.95522,172.60212Z"/><path class="cls-12" d="M451.90458,269.78147c-3.90946.34053-9.29165.759-15.8213,1.13072q-1.95683.11067-4.04644.21645c-19.71444.98614-27.52885-2.25185-27.52885-2.25185s-.52009-.42534-.34127-2.73846c.92755-11.91336,3.47921-15.41844,3.187-17.68552-.65551-5.09421-12.75832-46.70836-12.75832-46.70836s-.1602-13.1232,14.47071-19.19513a34.53649,34.53649,0,0,1,5.00671-1.63136c.62925,1.70211,2.36408,4.54938,6.8488,4.05329a23.43083,23.43083,0,0,0,13.40435-6.60153c.36636.00187.51055.01445.51055.01445a39.83594,39.83594,0,0,1,1.19651,4.33711c1.16644,5.165,1.83375,10.5951,4.97551,14.67084a111.08407,111.08407,0,0,1,8.00841,11.86579,98.4262,98.4262,0,0,1,4.86366,9.47467C466.63023,247.36359,456.505,269.37709,451.90458,269.78147Z"/><path class="cls-4" d="M451.90458,269.78147c-3.90946.34053-9.29165.759-15.8213,1.13072-1.71279-32.08965,11.54088-62.8215,11.54088-62.8215a11.49761,11.49761,0,0,1,1.39282,1.16722c2.26369,2.22523,3.83038,5.51686,4.86366,9.47467C457.6878,233.30147,454.28849,256.91361,451.90458,269.78147Z"/><path class="cls-16" d="M402.15416,162.15311s-3.62414,14.026,2.37284,16.0397,21.95682.52348,22.0527-16.6975c0,0-8.4003,4.94239-12.398,4.79252-3.99778-.1503-6.56464-2.47254-10.27058-.69205C403.91108,165.59578,402.55936,165.49761,402.15416,162.15311Z"/><path class="cls-12" d="M434.83542,178.38266s12.71153.36141,19.37621,9.14138c5.10714,6.72749,10.33486,42.69352,10.30253,48.10423-.03195,5.41074-6.00423,35.23635-9.26769,38.46179a12.23139,12.23139,0,0,1-4.90208-.0293,9.915,9.915,0,0,1-4.71222-2.323s1.81165-33.23477,1.83032-36.35331c.02664-4.51479-13.92363-32.23309-13.92363-32.23309S426.297,189.95587,434.83542,178.38266Z"/><path class="cls-16" d="M425.772,146.83055a3.15674,3.15674,0,0,0-1.669-1.7101c-10.21694-4.522-17.72966.31463-17.72966.31463,6.32836-8.39,21.47059-6.53079,24.61691,1.08961,5.13718,12.44256-4.41015,14.97062-4.41015,14.97062s-9.49412-4.05633-3.95252-9.03792a8.97408,8.97408,0,0,0,3.0284-4.406h0A4.40633,4.40633,0,0,0,425.772,146.83055Z"/><path class="cls-17" d="M716.19087,434.58225H666.35305A13.307,13.307,0,0,1,653.487,417.878l4.52747-17.1466a4.97285,4.97285,0,0,1,4.80806-3.70328h56.89894a4.97286,4.97286,0,0,1,4.80806,3.70328L729.057,417.878A13.30706,13.30706,0,0,1,716.19087,434.58225Z"/><path class="cls-18" d="M716.19087,431.22549H666.35305A13.307,13.307,0,0,1,653.487,414.52125l4.52747-17.1466a4.97283,4.97283,0,0,1,4.80806-3.70329h56.89894a4.97283,4.97283,0,0,1,4.80806,3.70329l4.52747,17.1466A13.307,13.307,0,0,1,716.19087,431.22549Z"/><path class="cls-6" d="M703.7098,397.99641c-5.47842.7301-3.03521,8.52323-.94939,12.184,2.58448,4.536,1.26587,12.184,7.27874,15.50691s14.00368-1.74058,10.127-10.2852c-2.76449-6.09315-6.134-9.32831-8.51382-13.102C708.77328,397.73488,706.32066,397.64846,703.7098,397.99641Z"/><path class="cls-6" d="M678.44075,397.99641c5.47844.7301,3.03521,8.52323.94939,12.184-2.58448,4.536-1.26585,12.184-7.27874,15.50691s-14.00368-1.74058-10.127-10.2852c2.76449-6.09315,6.134-9.32831,8.51382-13.102C673.37727,397.73488,675.82989,397.64846,678.44075,397.99641Z"/><path class="cls-17" d="M712.23553,316.14236c-.17721,12.56745,0,32.25915,0,46.117v43.70433h-7.9126s-2.21044-10.60916-3.95059-20.75943c-.97688-5.69536-2.04914-10.09347-2.94646-14.00779-.5157-2.25585-.97235-4.35042-1.31994-6.43817-2.4172-14.53933-1.59023-18.40134-2.95329-24.76229-.32031-1.49941-.85648-4.7412-1.49029-8.82132-.7406-4.79117-1.61294-10.73868-2.42625-16.37493v-.00451c-1.43123-9.9186-2.67161-18.87164-2.67161-18.87164s-3.862,36.12119-3.63482,41.34626c.06134,1.41076.18856,3.10549.3158,5.06834a118.414,118.414,0,0,1-.3158,21.51141c-.40667,3.65755-1.00866,8.87355-1.6516,14.39846-1.51752,13.01044-3.27131,27.71561-3.27131,27.71561H669.9874s-3.06691-30.96877-4.42995-45.4422-1.97645-26.88646-1.97645-55.738a156.31208,156.31208,0,0,1,3.469-34.64908c2.6625-11.67914,5.88386-16.92014,5.88386-16.92014a35.78537,35.78537,0,0,1,27.48843,0s4.79348,4.00965,7.34467,13.73057c.06356.234.12268.47254.18169.71334.19769.80876.393,1.622.58386,2.449a123.73338,123.73338,0,0,1,2.61936,15.214c.20677,1.86516.38846,3.8643.543,6.02929a.2.2,0,0,1,.00222.03637q.0648.86556.11813,1.76744C712.19921,299.313,712.36959,306.76448,712.23553,316.14236Z"/><path class="cls-19" d="M708.53253,270.10717a123.73338,123.73338,0,0,1,2.61936,15.214c-2.09685-12.71738-9.65957-11.76322-18.40136-12.50608l14.135-5.66354s.32031-.07724.88148-.20674c.06356.234.12268.47254.18169.71334C708.14636,268.46694,708.34168,269.28022,708.53253,270.10717Z"/><path class="cls-20" d="M708.53253,270.10717c-17.87883,5.0297-34.75812,2.51255-41.48251.02724,2.6625-11.67914,5.88386-16.92014,5.88386-16.92014a35.78537,35.78537,0,0,1,27.48843,0s5.02742,4.20505,7.52636,14.44391C708.14636,268.46694,708.34168,269.28022,708.53253,270.10717Z"/><path class="cls-21" d="M678.0075,405.96472s.44556,1.90546,1.28734,4.68336c.12216.40311.22355.77994.30726,1.13149a3.3264,3.3264,0,0,1-3.2392,4.09359H665.43075a1.84749,1.84749,0,0,1-1.51983-2.89686,4.25992,4.25992,0,0,1,1.5829-1.36272c2.9533-1.53346,4.49419-5.64886,4.49419-5.64886Z"/><path class="cls-21" d="M704.323,405.96472s-.44556,1.90546-1.28734,4.68336c-.12216.40311-.22355.77994-.30726,1.13149a3.3264,3.3264,0,0,0,3.23919,4.09359h10.93216a1.8475,1.8475,0,0,0,1.51983-2.89686,4.25992,4.25992,0,0,0-1.5829-1.36272c-2.95332-1.53346-4.49419-5.64886-4.49419-5.64886Z"/><path class="cls-22" d="M702.34834,431.22549H680.1956l.99555-4.81183a5.475,5.475,0,0,1,5.36144-4.36572h9.43876a5.475,5.475,0,0,1,5.36142,4.36572Z"/><path class="cls-21" d="M729.38741,145.873a24.80352,24.80352,0,0,1,4.50568-7.38327c2.72614-2.72611,6.891-5.30078,7.724-5.37651s.54705,1.79421-2.55769,4.9747c-2.07218,2.12273,1.1147,1.18312,5.43529.25037a35.931,35.931,0,0,1,6.626-.833c4.12706-.07573,4.20279.90871.18932,1.98679,0,0,1.92121-.31288,1.81742.3607-.17283,1.12132-2.8825,1.56907-2.8825,1.56907s.49714,1.38423-1.81249,1.83858c-1.13661.22361-9.16282,1.96888-12.11612,6.58815S729.38741,145.873,729.38741,145.873Z"/><path class="cls-21" d="M644.76391,146.89533s-2.90675-5.67944-5.63288-8.40557-6.891-5.30078-7.724-5.37651-.547,1.79421,2.55772,4.9747c2.07218,2.12273-1.11473,1.18312-5.43529.25037a35.93136,35.93136,0,0,0-6.626-.833c-4.12705-.07573-4.20278.90871-.18931,1.98679,0,0-1.92124-.31288-1.81742.3607.1728,1.12132,2.8825,1.56907,2.8825,1.56907s-.49714,1.38423,1.81249,1.83858c1.13659.22361,9.16282,1.96888,12.11612,6.58815S644.76391,146.89533,644.76391,146.89533Z"/><path class="cls-23" d="M727.96074,225.62815c-.95869,12.831-16.49536,24.01717-28.91739,8.76-13.39438-16.4522-26.10265-22.72228-27.85192-23.53328-.13405-.06363-.20447-.09316-.20447-.09316a26.33172,26.33172,0,0,1-4.81615-7.27877,12.46588,12.46588,0,0,1-.72242-2.4376,6.57776,6.57776,0,0,1,3.19408-7.231c8.59412-5.45908,2.38314-18.68987,9.79589-28.404a11.49317,11.49317,0,0,1,12.99455-3.94606s10.73185-.34077,10.16389,12.9491,8.46464,3.862,10.50923,20.9571,10.223,9.25746,15.10729,24.024A15.94293,15.94293,0,0,1,727.96074,225.62815Z"/><path d="M727.96074,225.62815c-.95869,12.831-16.49536,24.01717-28.91739,8.76-13.39438-16.4522-26.10265-22.72228-27.85192-23.53328-2.06277-3.03057-3.84387-5.64538-5.02062-7.37193-.93821-1.38123-1.4903-2.19225-1.4903-2.19225s.284-.07724.76788-.24535c2.47395-.861,10.17528-4.12783,11.96768-11.895,2.14228-9.287,19.23963-6.32011,19.23963-6.32011s6.34055,4.12328,3.61442,11.393-2.77616,15.02324,12.31755,19.13517C721.44075,215.77089,726.01381,220.64838,727.96074,225.62815Z"/><path class="cls-21" d="M706.8855,264.03244c-.69513.19992-1.38353.39074-2.06272.56793-23.05629,6.052-36.18031-.56793-36.18031-.56793,1.17908-5.21374,2.92153-9.28018,3.40544-13.5443.134-1.18586.2294-2.33765.29075-3.44174a58.7772,58.7772,0,0,0-.54068-12.44474s32.9407-4.10512,31.35046,0c-.72923,1.881-1.981,10.01393-.45435,15.88648C704.73186,258.328,706.8855,264.03244,706.8855,264.03244Z"/><path class="cls-24" d="M706.8855,264.03244c-.69513.19992-1.38353.39074-2.06272.56793a18.39791,18.39791,0,0,0-7.69454-11.61329c-5.56128-3.77116-17.61987-3.63027-24.78958-5.94068a58.7772,58.7772,0,0,0-.54068-12.44474s32.9407-4.10512,31.35046,0c-.72923,1.881-1.981,10.01393-.45435,15.88648C704.73186,258.328,706.8855,264.03244,706.8855,264.03244Z"/><path class="cls-20" d="M736.31633,149.84863s-9.54144,33.47-11.81322,41.194-14.1713,23.9263-17.26547,33.66085c-.05226.16585-.1045.33167-.15674.493l-.00681.02273c-.85192,2.66934-1.60389,4.95926-2.25131,6.89481-.02276.06361-.04321.12495-.06363.18627-1.92419,5.7317-2.92606,8.2897-2.92606,8.2897s-15.84563,3.08283-29.48307-.77919a14.05244,14.05244,0,0,1-1.6516-2.056.16358.16358,0,0,1-.01584-.02727q-.07847-.11581-.15679-.23851l-.00456-.00681a17.47558,17.47558,0,0,1-.92-1.59252,16.03287,16.03287,0,0,1-1.77881-8.57366,26.46527,26.46527,0,0,0-2.0832-9.46649c-4.84569-11.05446-16.20456-25.60969-20.06657-37.83179s-8.74179-29.85113-8.74179-29.85113,5.01383-1.56749,7.28559-4.29363c0,0,12.58788,29.32857,14.85965,34.14476s13.642,27.0795,20.67994,27.19308c7.03568.1136,17.37223-1.59023,17.37223-1.59023s3.07542.46084,9.95266-9.73076a86.91237,86.91237,0,0,0,7.42641-13.97741c7.02623-16.36408,14.8801-36.03944,14.8801-36.03944S732.68148,149.1671,736.31633,149.84863Z"/><path class="cls-21" d="M697.12824,205.62064s-2.99417,3.63484-9.16433,3.63484-8.2079-2.04461-8.2079-2.04461a29.30442,29.30442,0,0,0,2.37628-8.794,22.41824,22.41824,0,0,0-.07271-5.51817c-.95414-6.6472,8.43056-4.72756,10.31386-4.28.209.05.32485.08179.32485.08179S692.69829,204.0304,697.12824,205.62064Z"/><path class="cls-24" d="M692.37344,188.61868a4.25062,4.25062,0,0,1-.48617,1.6675,14.31119,14.31119,0,0,1-9.755,8.13069,22.41824,22.41824,0,0,0-.07271-5.51817C681.10544,186.2515,690.49014,188.17114,692.37344,188.61868Z"/><path class="cls-24" d="M693.92372,180.89148l.46773-.21811s3.21617-.39761,3.66663,2.11631-2.4564,5.62747-4.98826,5.087S693.92372,180.89148,693.92372,180.89148Z"/><path class="cls-21" d="M679.756,171.43046c-.856.13471-2.33428.85651-2.41786,1.71907-.20014,2.0656-.28523,2.98516-.43254,4.97265-.09024,1.24111-.16132,2.45484-.20542,3.62869-.22979,6.3473.39817,11.49323,3.51914,13.21127,4.84428,2.66861,12.50276-5.00893,12.50276-5.00893l1.81787-8.458c.26558-1.4476.81977-4.93525-1.68672-7.07953a14.08169,14.08169,0,0,1-3.63833-5.48418C687.03777,170.84811,682.42073,171.01112,679.756,171.43046Z"/><path class="cls-19" d="M678.53832,387.77816c1.00866-3.08964,1.931-6.29053,2.73976-9.53012-1.51752,13.01044-3.27131,27.71561-3.27131,27.71561h-4.41184C674.08794,403.01267,675.35108,397.54224,678.53832,387.77816Z"/><path class="cls-19" d="M682.92968,337.26983c.06134,1.41076.18856,3.10549.3158,5.06834a22.85419,22.85419,0,0,0-2.05825-5.14333c-6.20876-11.05668.60655-17.872-.60433-30.89609-1.21306-13.02634,1.21088-21.65907,2.11959-18.32636a37.53945,37.53945,0,0,0,3.862,7.95118S682.70249,332.04476,682.92968,337.26983Z"/><path class="cls-19" d="M711.81523,293.1543c-.05679-.5157-.09766-1.10411-.11813-1.76744Q711.7619,292.25242,711.81523,293.1543Z"/><path class="cls-19" d="M697.469,356.35272a76.86388,76.86388,0,0,0-.04313,14.84371c-.5157-2.25585-.97235-4.35042-1.31994-6.43817-2.4172-14.53933-1.59023-18.40134-2.95329-24.76229-.32031-1.49941-.85648-4.7412-1.49029-8.82132C694.34079,340.71381,698.146,350.01674,697.469,356.35272Z"/><path class="cls-20" d="M707.0809,225.19649l-.00681.02273c-.89735,2.50576-1.64479,4.8207-2.2627,6.90845-.01819.05905-.03637.11584-.05224.17263a84.53866,84.53866,0,0,0-2.78519,12.05633c-10.11167,5.684-29.53986,0-29.53986,0a12.06422,12.06422,0,0,0-1.73568-6.60179.16358.16358,0,0,1-.01584-.02727c-.08408-.13174-.13861-.21351-.15679-.23851l-.00456-.00681s.2-.09767.55891-.27488c3.11457-1.53573,18.2491-8.98943,18.58988-9.05759C690.04716,228.07255,707.0809,225.19649,707.0809,225.19649Z"/><path class="cls-25" d="M704.82278,232.114c-.02276.06361-.04321.12495-.06363.18627a84.53866,84.53866,0,0,0-2.78519,12.05633c-10.11167,5.684-29.53986,0-29.53986,0a12.06422,12.06422,0,0,0-1.73568-6.60179.16358.16358,0,0,1-.01584-.02727q-.07847-.11581-.15679-.23851l-.00456-.00681a17.47558,17.47558,0,0,1-.92-1.59252,11.4563,11.4563,0,0,0,1.47894,1.31764c1.9878,1.46073,4.146,1.75153,7.147.33167,5.04331-2.38536,7.96479-1.44033,13.66015.92687,4.021,1.672,9.19385-1.9719,12.92412-6.33824Z"/><path class="cls-21" d="M679.756,207.21087s-.76407,9.57932,4.61244,11.47245,10.564-4.70613,12.75979-13.06268h-9.74293Z"/><path class="cls-3" d="M920.802,407.77016c17.45437-76.6831,12.97839-146.17822,12.97839-146.17822s.41177-18.52705-28.17337,55.79664c-9.16878,23.8396-7.36972,53.49625-2.80842,72.93161a81.15871,81.15871,0,0,1,1.76382,19.49249l.057,9.19135h28.81542a2.16879,2.16879,0,0,0,1.00629-4.09Z"/><path class="cls-15" d="M921.573,291.72935s12.78129-18.53078,12.20739-30.13741H885.64749a193.90663,193.90663,0,0,0-1.66631,31.84552,168.20823,168.20823,0,0,1-1.25413,27.67418c-.83494,6.48385-1.53111,16.52479-1.56193,32.01387-.00709,3.573.9678,20.423,2.675,34.21944,1.22061,9.86384,1.80733,22.46773,1.80733,22.46773V419.004h28.51458a1.852,1.852,0,0,0,.72555-3.556l-13.235-5.63536Z"/><path class="cls-26" d="M966.55029,266.40315s-1.72322,86.62238-1.88688,143.30235H975.162c1.52817-16.56286,15.48124-45.11389,16.77-74.11024,1.51539-34.09725,13.61391-52.81379,13.61391-65.06346,0-25.53152-12.57024.79286-12.49405-12.48353C993.13187,244.10571,965.13273,265.70762,966.55029,266.40315Z"/><path class="cls-27" d="M1008.58916,261.592s8.40105,16.395,7.784,33.07879c-.34258,9.26207-.26889,16.76727,1.8415,25.7922,9.63186,41.18975.15951,55.80333,1.25272,78.39357.32323,6.67915.5262,10.95619.5262,10.95619h-9.36689L975.898,264.15531s-12.27065,9.04326-11.69675-2.56332Z"/><path class="cls-28" d="M985.86075,156.30281s-13.06622-.46177-9.07881-7.9999c6.25181-11.819,29.06912-5.1063,30.49593,12.87923.74066,9.33657-8.37414,13.5341,2.5628,17.83514,12.76576,5.02021,15.65935,14.11587,9.9263,25.60485-4.43866,8.89508,12.71168,29.373-12.14867,35.13673-30.57424,7.08847-31.60434,8.08757-40.41093-15.61819C957.75637,198.7003,985.86075,156.30281,985.86075,156.30281Z"/><path class="cls-29" d="M940.55706,212.17338l-6.78725,3.02891a201.14354,201.14354,0,0,1,.01568,22.84009c9.61956,10.00882,30.177,2.95119,30.177,2.95119l.019-11.55266C951.65576,235.775,947.3345,226.2846,940.55706,212.17338Z"/><path class="cls-4" d="M933.76981,215.20229l6.69865-2.98938c-1.24721-2.737-2.56045-5.655-4.00737-8.68036-8.97975-18.77588-30.445-20.7751-30.445-20.7751l-4.70133,2.07183a26.31294,26.31294,0,0,0-12.87,11.96478,38.298,38.298,0,0,0-4.35021,22.751l-.2544,46.858h51.55616S934.55,225.12655,933.76981,215.20229Z"/><path class="cls-16" d="M1005.732,191.11243s-2.449-2.58506-13.19755-7.07494l-11.44818.76656s-10.61069-3.19256-19.11427,6.60353c-7.624,8.78289-13.85054,15.987-26.45873,10.29323.32839.5931.64631,1.20131.94784,1.83174,1.92875,4.0328,4.96956,10.49871,6.674,13.93025a24.59387,24.59387,0,0,0,20.82734-3.62885v37.95991s28.84408,1.36053,36.0551-17.00716S1005.732,191.11243,1005.732,191.11243Z"/><path class="cls-29" d="M904.93242,175.10948l.11126,6.68441a6.27632,6.27632,0,0,0,2.71462,5.08113c3.62588,2.48135,9.71122,5.47651,10.09174-2.03941l-1.34107-5.35432Z"/><path class="cls-30" d="M906.96549,172.73913v-6.66434a7.66049,7.66049,0,0,0-1.96792.92593v9.05108l1.96792-.36291Z"/><path class="cls-30" d="M913.86441,157.92661a17.48559,17.48559,0,0,0-2.29564.31608,4.15,4.15,0,0,0-2.64261,1.79752v9.2923a7.21633,7.21633,0,0,0,7.01907,1.11134,9.51355,9.51355,0,0,1,4.41348-.74409,4.60783,4.60783,0,0,1,2.84207,1.41179c.014-1.765.04111-5.94328.03809-11.65621a73.7251,73.7251,0,0,0-7.58786-1.52873Z"/><path class="cls-28" d="M927.485,147.44551c.4754-3.89182-2.60968-8.58334-7.11788-6.99221-4.626,1.63269-.68026,6.31343-6.9389,7.02372s-15.632-3.26063-13.80975,8.81695c0,0-3.631-.02527-2.92525,6.44007.68031,6.23148,5.8554,12.77353,8.30438,13.31776v-9.05108a7.66234,7.66234,0,0,1,1.96792-.92593V179.576s4.75566,6.42629,12.80528,6.35291a4.8092,4.8092,0,0,0,4.768-4.80549v-6.68477a4.74136,4.74136,0,0,0-4.18-4.7389,9.51326,9.51326,0,0,0-4.41343.74409,7.21617,7.21617,0,0,1-7.01907-1.11134v-9.2923a4.15005,4.15005,0,0,1,2.64256-1.79752,14.47721,14.47721,0,0,1,4.08224-.31608c5.2432.46723,10.32035,3.29556,12.44651.64626,1.25876-1.56841.74634-2.73234-.30091-3.561C932.61262,151.57754,929.91869,148.88932,927.485,147.44551Z"/><path class="cls-30" d="M906.96549,161.93353a3.63953,3.63953,0,1,0,0,7.08857Z"/><path class="cls-31" d="M1012.83521,225.41255l-1.49942,9.36338a63.3677,63.3677,0,0,0,2.10411,28.9748c1.57585,5.027,3.01425,10.096,4.13534,15.24355l3.41423,15.6765h-60.5309l2.59983-40.62162,29.476-16.40522Z"/><path class="cls-27" d="M976.68171,203.08544s10.68254-7.211,15.85272-19.048l-11.56481,2.41508A35.288,35.288,0,0,0,976.68171,203.08544Z"/><path class="cls-32" d="M976.72429,203.05618a46.32845,46.32845,0,0,0,5.37214-4.49779l.947-6.49353s-3.82865,1.13442-6.30118,9.54567c-.02671.45646-.04734.91924-.05786,1.39152Z"/><path class="cls-32" d="M982.73835,187.98314l-.85771,1.78133a4.44132,4.44132,0,0,0-.02665,3.797h0l.80465-.2783a4.441,4.441,0,0,0,2.692-2.59849l1.26841-3.287Z"/><path class="cls-16" d="M980.96962,186.45257a26.19208,26.19208,0,0,0-2.04195,4.46986l4.89914-1.75683,2.85386,4.39086a42.50858,42.50858,0,0,0,5.85376-9.519Z"/><path class="cls-29" d="M994.70083,192.0714a9.06593,9.06593,0,0,1,13.26981,1.0232c3.09763,3.97658,5.99653,11.08589,5.61209,23.70872-.79532,26.11185-12.32693,36.18547-42.54777,37.24584,0,0-8.90086,5.41269-14.67149,5.23825a.4658.4658,0,0,1-.34411-.75486,9.351,9.351,0,0,1,2.62239-2.29636,11.585,11.585,0,0,1-4.455,1.68171.30093.30093,0,0,1-.25388-.50021,12.69233,12.69233,0,0,1,3.18455-2.6395s-3.31369,1.52428-4.5729,1.39178c-1.25922-.13256,3.77759-3.71137,3.77759-3.71137s-5.10309,3.18113-5.69956,2.38587c-.59646-.79531,5.26971-6.79874,9.41087-7.489,1.59062-.26506,1.98824-.99409.3314-1.52428a3.76872,3.76872,0,0,1-2.38587-3.2474c0-.86159,1.39178-.66275,2.187.39762a5.67008,5.67008,0,0,0,3.18118,2.05447c.729,0,4.63913,2.38587,4.63913,2.38587s23.52719-8.8819,22.86444-23.29582C990.29751,212.09219,986.46447,199.66529,994.70083,192.0714Z"/><path class="cls-16" d="M967.98634,247.42179s23.52719-8.8819,22.86444-23.29582c-.55327-12.03383-4.38631-24.46068,3.85005-32.05457a9.06593,9.06593,0,0,1,13.26981,1.0232c3.09763,3.97658,5.99653,11.08589,5.61209,23.70872-.79532,26.11185-12.32693,36.18547-42.54777,37.24584C970.60567,248.80683,967.98634,247.42179,967.98634,247.42179Z"/><path class="cls-28" d="M966.68643,215.51372a17.082,17.082,0,0,1-.78694-11.42014c.69711-2.542,4.84645-9.50539,7.064-4.46465,2.13571,4.85492-1.05685,12.00921-3.059,16.332-.18822.40636.41535.76258.60479.35351,1.85236-3.99936,3.68716-8.62786,3.69615-13.10216.00388-1.91241-.2567-5.2118-2.451-5.95339-2.76986-.936-5.09441,2.7091-5.90769,4.75908a17.991,17.991,0,0,0,.23494,13.84931c.1753.41367.77877.05714.6048-.35351Z"/><path class="cls-33" d="M992.7679,184.08978c3.87062,4.69259-1.75785,11.64733-4.08842,15.8728-.19853.35989.35249.6823.55112.32215,2.49306-4.52,8.18393-11.56011,3.98864-16.64629-.2616-.3171-.7109.13664-.45134.45134Z"/><path class="cls-28" d="M979.57708,183.5791c-7.28725.16478-8.11943,8.17-9.12577,13.72146-.07987.44067.595.62971.6754.18617.93783-5.17355,1.54384-13.05105,8.45037-13.20725a.3504.3504,0,0,0,0-.70038Z"/><path class="cls-28" d="M966.20848,216.9346a.97251.97251,0,0,0,1.39907-.65942.90851.90851,0,0,0-.83431-1.04955,1.12556,1.12556,0,0,0-1.04175.52247c-.27043.48434.06031.93788.477,1.1865a.35047.35047,0,0,0,.3535-.60479.54107.54107,0,0,1-.228-.19613c-.01491-.03028-.00414-.0215.00235-.032a.43453.43453,0,0,1,.30443-.17805.23037.23037,0,0,1,.25705.1084c.1009.19639-.15772.38344-.33579.2978C966.15767,216.13531,965.802,216.73908,966.20848,216.9346Z"/><path class="cls-28" d="M969.37009,217.38248a.97249.97249,0,0,0,1.39908-.65943.90844.90844,0,0,0-.83432-1.0495,1.12555,1.12555,0,0,0-1.04174.52248c-.27043.48428.06031.93787.477,1.18645a.35047.35047,0,0,0,.35351-.60479.54039.54039,0,0,1-.228-.19614c-.01491-.03022-.00414-.02149.00234-.032a.43436.43436,0,0,1,.30444-.178.23041.23041,0,0,1,.25705.10836c.1009.19644-.15773.38348-.33579.2978C969.31929,216.58324,968.96358,217.187,969.37009,217.38248Z"/><path class="cls-28" d="M986.513,205.24581a3.14146,3.14146,0,0,0,4.02489-4.00783c-1.208-3.56655-6.037-2.00213-5.82481,1.41184A2.69527,2.69527,0,0,0,986.513,205.24581Z"/><path class="cls-16" d="M987.29925,203.33764a1.10283,1.10283,0,0,0,1.41291-1.407,1.059,1.059,0,0,0-2.04476.49567A.94614.94614,0,0,0,987.29925,203.33764Z"/><path class="cls-30" d="M890.54566,191.94445s-2.30836.444-2.57776,1.617c-.26946,1.173-2.40267,1.89546-2.68806,2.60692a27.60358,27.60358,0,0,0-.3768,4.369q-.01862.27728-.01935.56864c-.00409.13246-.00618.21069-.00618.21069l.00751-.00986a9.31378,9.31378,0,0,0,.18729,1.70918c.51835,2.52221,1.22531,1.86,1.50718-.52033.493,1.41026,1.06114.53535,1.28761-1.6383.54249,2.10854,1.23327,1.12011,1.45335-1.50039.77376,2.82047,1.82112-.49056,1.3951-5.79009.58294.37787,2.51725,1.51024,2.66176-.01047C893.5475,191.765,890.54566,191.94445,890.54566,191.94445Z"/><path class="cls-30" d="M994.37674,165.30405a3.38487,3.38487,0,0,0-2.92306-3.79077l-.03227-.00255c.30618-1.58051.64963-2.89584.87063-3.67736-3.07972.14788-8.71937-.53713-11.32594-6.953a3.37017,3.37017,0,0,1-.27818-1.52219c-2.04059,1.25028-3.88407,3.52243-5.27518,7.22277-1.20376,3.202-3.64279,10.45306-2.73131,15.12829,1.25533,6.439,5.02154,7.18238,9.77112,6.21764,0,0-5.63261,13.06331,1.13426,12.2416,5.5528-.67429,8.96427-6.31175,8.96427-6.31175l.93951-8.3775c-.026-.01976-.05172-.036-.07782-.057-1.90583-1.53787-2.57572-4.27852-2.64654-7.181A3.382,3.382,0,0,0,994.37674,165.30405Z"/><path class="cls-30" d="M961.78136,248.50387c-1.59056-.26507-1.98819-.99409-.33135-1.52428a3.76872,3.76872,0,0,0,2.38587-3.24741c0-.86153-1.39177-.66274-2.18708.39763a5.6699,5.6699,0,0,1-3.18107,2.05447c-.729,0-4.63923,2.38587-4.63923,2.38587s-18.83757-.71361-30.58937-3.691c-11.08482-2.80847-14.37271-.51063-14.91817-19.36821a46.601,46.601,0,0,1,.47734-6.00558l-.00036.00342H885.64749c-1.80733,13.11524,3.11719,31.52316,13.26163,36.2471,8.19618,3.81671,22.65545,5.67132,51.87081-.55832,0,0,8.90085,5.41268,14.67148,5.23825.37853-.01144,2.55969-2.98494,3.81891-3.1175,1.25916-.13251,1.3255-.53014,1.922-1.32544S965.92257,249.19409,961.78136,248.50387Z"/><path class="cls-28" d="M964.66341,409.7055l-16.20756,6.15705a1.56826,1.56826,0,0,0,.55693,3.0343h26.76251l-.61327-9.19135Z"/><path class="cls-28" d="M1010.38725,409.89732l-17.63261,6.2289a1.48122,1.48122,0,0,0,.49338,2.87786h25.26434a1.48121,1.48121,0,0,0,1.48122-1.48122V411.294a1.48121,1.48121,0,0,0-1.48122-1.48122h-7.63173A1.48125,1.48125,0,0,0,1010.38725,409.89732Z"/><rect class="cls-34" x="963.28823" y="202.23519" width="0.67424" height="15.69178"/></g></g></svg>
